  0
SECTION
  2
HEADER
  9
$ACADVER
  1
AC1014
  9
$HANDSEED
  5
FFFF
  9
$MEASUREMENT
 70
     1
  0
ENDSEC
  0
SECTION
  2
TABLES
  0
TABLE
  2
VPORT
  5
8
330
0
100
AcDbSymbolTable
 70
     4
  0
VPORT
  5
2E
330
8
100
AcDbSymbolTableRecord
100
AcDbViewportTableRecord
  2
*ACTIVE
 70
     0
 10
0.0
 20
0.0
 11
1.0
 21
1.0
 12
210.0
 22
148.5
 13
0.0
 23
0.0
 14
10.0
 24
10.0
 15
10.0
 25
10.0
 16
0.0
 26
0.0
 36
1.0
 17
0.0
 27
0.0
 37
0.0
 40
341.0
 41
1.24
 42
50.0
 43
0.0
 44
0.0
 50
0.0
 51
0.0
 71
     0
 72
   100
 73
     1
 74
     3
 75
     0
 76
     0
 77
     0
 78
     0
  0
ENDTAB
  0
TABLE
  2
LTYPE
  5
5
330
0
100
AcDbSymbolTable
 70
     1
  0
LTYPE
  5
14
330
5
100
AcDbSymbolTableRecord
100
AcDbLinetypeTableRecord
  2
BYBLOCK
 70
     0
  3

 72
    65
 73
     0
 40
0.0
  0
LTYPE
  5
15
330
5
100
AcDbSymbolTableRecord
100
AcDbLinetypeTableRecord
  2
BYLAYER
 70
     0
  3

 72
    65
 73
     0
 40
0.0
  0
LTYPE
  5
16
330
5
100
AcDbSymbolTableRecord
100
AcDbLinetypeTableRecord
  2
CONTINUOUS
 70
     0
  3
Solid line
 72
    65
 73
     0
 40
0.0
  0
ENDTAB
  0
TABLE
  2
LAYER
  5
2
100
AcDbSymbolTable
 70
2
  0
LAYER
  5
50
100
AcDbSymbolTableRecord
100
AcDbLayerTableRecord
  2
0
 70
0
  6
CONTINUOUS
  0
LAYER
  5
51
100
AcDbSymbolTableRecord
100
AcDbLayerTableRecord
  2
Layer_1
 70
0
  6
CONTINUOUS
  0
ENDTAB
  0
TABLE
  2
STYLE
  5
3
330
0
100
AcDbSymbolTable
 70
     1
  0
STYLE
  5
11
330
3
100
AcDbSymbolTableRecord
100
AcDbTextStyleTableRecord
  2
STANDARD
 70
     0
 40
0.0
 41
1.0
 50
0.0
 71
     0
 42
2.5
  3
txt
  4

  0
ENDTAB
  0
TABLE
  2
VIEW
  5
6
330
0
100
AcDbSymbolTable
 70
     0
  0
ENDTAB
  0
TABLE
  2
UCS
  5
7
330
0
100
AcDbSymbolTable
 70
     0
  0
ENDTAB
  0
TABLE
  2
APPID
  5
9
330
0
100
AcDbSymbolTable
 70
     2
  0
APPID
  5
12
330
9
100
AcDbSymbolTableRecord
100
AcDbRegAppTableRecord
  2
ACAD
 70
     0
  0
ENDTAB
  0
TABLE
  2
DIMSTYLE
  5
A
330
0
100
AcDbSymbolTable
 70
     1
  0
DIMSTYLE
105
27
330
A
100
AcDbSymbolTableRecord
100
AcDbDimStyleTableRecord
  2
ISO-25
 70
     0
  3

  4

  5

  6

  7

 40
1.0
 41
2.5
 42
0.625
 43
3.75
 44
1.25
 45
0.0
 46
0.0
 47
0.0
 48
0.0
140
2.5
141
2.5
142
0.0
143
0.03937007874016
144
1.0
145
0.0
146
1.0
147
0.625
 71
     0
 72
     0
 73
     0
 74
     0
 75
     0
 76
     0
 77
     1
 78
     8
170
     0
171
     3
172
     1
173
     0
174
     0
175
     0
176
     0
177
     0
178
     0
270
     2
271
     2
272
     2
273
     2
274
     3
340
11
275
     0
280
     0
281
     0
282
     0
283
     0
284
     8
285
     0
286
     0
287
     3
288
     0
  0
ENDTAB
  0
TABLE
  2
BLOCK_RECORD
  5
1
330
0
100
AcDbSymbolTable
 70
     1
  0
BLOCK_RECORD
  5
1F
330
1
100
AcDbSymbolTableRecord
100
AcDbBlockTableRecord
  2
*MODEL_SPACE
  0
BLOCK_RECORD
  5
1B
330
1
100
AcDbSymbolTableRecord
100
AcDbBlockTableRecord
  2
*PAPER_SPACE
  0
ENDTAB
  0
ENDSEC
  0
SECTION
  2
BLOCKS
  0
BLOCK
  5
20
330
1F
100
AcDbEntity
  8
0
100
AcDbBlockBegin
  2
*MODEL_SPACE
 70
     0
 10
0.0
 20
0.0
 30
0.0
  3
*MODEL_SPACE
  1

  0
ENDBLK
  5
21
330
1F
100
AcDbEntity
  8
0
100
AcDbBlockEnd
  0
BLOCK
  5
1C
330
1B
100
AcDbEntity
 67
     1
  8
0
100
AcDbBlockBegin
  2
*PAPER_SPACE
  1

  0
ENDBLK
  5
1D
330
1B
100
AcDbEntity
 67
     1
  8
0
100
AcDbBlockEnd
  0
ENDSEC
  0
SECTION
  2
ENTITIES
  0
SPLINE
  5
100
100
AcDbEntity
  8
Layer_1
 62
7
100
AcDbSpline
 70
8
 71
3
 72
8
 73
4
 74
0
 40
0
 40
0
 40
0
 40
0
 40
1
 40
1
 40
1
 40
1
 10
164.966502
 20
437.682869
 30
0.0
 10
164.966502
 20
432.907483
 30
0.0
 10
168.013366
 20
429.977820
 30
0.0
 10
173.067060
 20
429.977820
 30
0.0
  0
SPLINE
  5
101
100
AcDbEntity
  8
Layer_1
 62
7
100
AcDbSpline
 70
8
 71
3
 72
8
 73
4
 74
0
 40
0
 40
0
 40
0
 40
0
 40
1
 40
1
 40
1
 40
1
 10
173.067060
 20
429.977820
 30
0.0
 10
178.135404
 20
429.977820
 30
0.0
 10
181.182268
 20
432.907483
 30
0.0
 10
181.182268
 20
437.682869
 30
0.0
  0
LWPOLYLINE
  5
102
100
AcDbEntity
  8
Layer_1
 62
7
100
AcDbPolyline
 90
3
 70
0
 10
169.610040
 20
451.598825
 30
0.0
 10
164.966502
 20
451.598825
 30
0.0
 10
164.966502
 20
437.682869
 30
0.0
  0
SPLINE
  5
103
100
AcDbEntity
  8
Layer_1
 62
7
100
AcDbSpline
 70
8
 71
3
 72
8
 73
4
 74
0
 40
0
 40
0
 40
0
 40
0
 40
1
 40
1
 40
1
 40
1
 10
176.524081
 20
438.034422
 30
0.0
 10
176.524081
 20
435.441657
 30
0.0
 10
175.352210
 20
433.932860
 30
0.0
 10
173.067060
 20
433.932860
 30
0.0
  0
SPLINE
  5
104
100
AcDbEntity
  8
Layer_1
 62
7
100
AcDbSpline
 70
8
 71
3
 72
8
 73
4
 74
0
 40
0
 40
0
 40
0
 40
0
 40
1
 40
1
 40
1
 40
1
 10
173.067060
 20
433.932860
 30
0.0
 10
170.796560
 20
433.932860
 30
0.0
 10
169.610040
 20
435.441657
 30
0.0
 10
169.610040
 20
438.034422
 30
0.0
  0
LWPOLYLINE
  5
105
100
AcDbEntity
  8
Layer_1
 62
7
100
AcDbPolyline
 90
4
 70
0
 10
181.182268
 20
437.682869
 30
0.0
 10
181.182268
 20
451.598825
 30
0.0
 10
176.524081
 20
451.598825
 30
0.0
 10
176.524081
 20
438.034422
 30
0.0
  0
SPLINE
  5
106
100
AcDbEntity
  8
Layer_1
 62
7
100
AcDbSpline
 70
8
 71
3
 72
8
 73
4
 74
0
 40
0
 40
0
 40
0
 40
0
 40
1
 40
1
 40
1
 40
1
 10
194.028908
 20
446.867405
 30
0.0
 10
191.978133
 20
446.867405
 30
0.0
 10
190.440051
 20
445.842028
 30
0.0
 10
189.722282
 20
444.157455
 30
0.0
  0
LWPOLYLINE
  5
107
100
AcDbEntity
  8
Layer_1
 62
7
100
AcDbPolyline
 90
2
 70
0
 10
169.610040
 20
438.034422
 30
0.0
 10
169.610040
 20
451.598825
 30
0.0
  0
SPLINE
  5
108
100
AcDbEntity
  8
Layer_1
 62
7
100
AcDbSpline
 70
8
 71
3
 72
8
 73
4
 74
0
 40
0
 40
0
 40
0
 40
0
 40
1
 40
1
 40
1
 40
1
 10
189.810173
 20
432.848891
 30
0.0
 10
190.469350
 20
431.222910
 30
0.0
 10
191.978133
 20
430.241471
 30
0.0
 10
194.087503
 20
430.241471
 30
0.0
  0
SPLINE
  5
109
100
AcDbEntity
  8
Layer_1
 62
7
100
AcDbSpline
 70
8
 71
3
 72
8
 73
4
 74
0
 40
0
 40
0
 40
0
 40
0
 40
1
 40
1
 40
1
 40
1
 10
194.087503
 20
430.241471
 30
0.0
 10
197.749599
 20
430.241471
 30
0.0
 10
199.858966
 20
433.200444
 30
0.0
 10
199.858966
 20
438.561751
 30
0.0
  0
SPLINE
  5
10a
100
AcDbEntity
  8
Layer_1
 62
7
100
AcDbSpline
 70
8
 71
3
 72
8
 73
4
 74
0
 40
0
 40
0
 40
0
 40
0
 40
1
 40
1
 40
1
 40
1
 10
199.858966
 20
438.561751
 30
0.0
 10
199.858966
 20
443.937713
 30
0.0
 10
197.720303
 20
446.867405
 30
0.0
 10
194.028908
 20
446.867405
 30
0.0
  0
LWPOLYLINE
  5
10b
100
AcDbEntity
  8
Layer_1
 62
7
100
AcDbPolyline
 90
8
 70
0
 10
189.722282
 20
444.157455
 30
0.0
 10
189.517195
 20
444.157455
 30
0.0
 10
189.517195
 20
446.633036
 30
0.0
 10
185.108029
 20
446.633036
 30
0.0
 10
185.108029
 20
425.231717
 30
0.0
 10
189.605086
 20
425.231717
 30
0.0
 10
189.605086
 20
432.848891
 30
0.0
 10
189.810173
 20
432.848891
 30
0.0
  0
SPLINE
  5
10c
100
AcDbEntity
  8
Layer_1
 62
7
100
AcDbSpline
 70
8
 71
3
 72
8
 73
4
 74
0
 40
0
 40
0
 40
0
 40
0
 40
1
 40
1
 40
1
 40
1
 10
192.417585
 20
433.830331
 30
0.0
 10
190.630483
 20
433.830331
 30
0.0
 10
189.575796
 20
435.456312
 30
0.0
 10
189.575796
 20
438.547124
 30
0.0
  0
SPLINE
  5
10d
100
AcDbEntity
  8
Layer_1
 62
7
100
AcDbSpline
 70
8
 71
3
 72
8
 73
4
 74
0
 40
0
 40
0
 40
0
 40
0
 40
1
 40
1
 40
1
 40
1
 10
189.575796
 20
438.547124
 30
0.0
 10
189.575796
 20
441.652564
 30
0.0
 10
190.615833
 20
443.278545
 30
0.0
 10
192.417585
 20
443.278545
 30
0.0
  0
SPLINE
  5
10e
100
AcDbEntity
  8
Layer_1
 62
7
100
AcDbSpline
 70
8
 71
3
 72
8
 73
4
 74
0
 40
0
 40
0
 40
0
 40
0
 40
1
 40
1
 40
1
 40
1
 10
192.417585
 20
443.278545
 30
0.0
 10
194.219337
 20
443.278545
 30
0.0
 10
195.244724
 20
441.652564
 30
0.0
 10
195.244724
 20
438.561751
 30
0.0
  0
SPLINE
  5
10f
100
AcDbEntity
  8
Layer_1
 62
7
100
AcDbSpline
 70
8
 71
3
 72
8
 73
4
 74
0
 40
0
 40
0
 40
0
 40
0
 40
1
 40
1
 40
1
 40
1
 10
195.244724
 20
438.561751
 30
0.0
 10
195.244724
 20
435.456312
 30
0.0
 10
194.233986
 20
433.830331
 30
0.0
 10
192.417585
 20
433.830331
 30
0.0
  0
LWPOLYLINE
  5
110
100
AcDbEntity
  8
Layer_1
 62
7
100
AcDbPolyline
 90
1
 70
1
 10
194.028908
 20
446.867405
 30
0.0
  0
SPLINE
  5
111
100
AcDbEntity
  8
Layer_1
 62
7
100
AcDbSpline
 70
8
 71
3
 72
8
 73
4
 74
0
 40
0
 40
0
 40
0
 40
0
 40
1
 40
1
 40
1
 40
1
 10
209.644095
 20
434.108665
 30
0.0
 10
207.813044
 20
434.108665
 30
0.0
 10
206.816956
 20
435.705335
 30
0.0
 10
206.816956
 20
438.708246
 30
0.0
  0
SPLINE
  5
112
100
AcDbEntity
  8
Layer_1
 62
7
100
AcDbSpline
 70
8
 71
3
 72
8
 73
4
 74
0
 40
0
 40
0
 40
0
 40
0
 40
1
 40
1
 40
1
 40
1
 10
206.816956
 20
438.708246
 30
0.0
 10
206.816956
 20
441.681874
 30
0.0
 10
207.813044
 20
443.278545
 30
0.0
 10
209.644095
 20
443.278545
 30
0.0
  0
SPLINE
  5
113
100
AcDbEntity
  8
Layer_1
 62
7
100
AcDbSpline
 70
8
 71
3
 72
8
 73
4
 74
0
 40
0
 40
0
 40
0
 40
0
 40
1
 40
1
 40
1
 40
1
 10
209.644095
 20
443.278545
 30
0.0
 10
211.460494
 20
443.278545
 30
0.0
 10
212.485881
 20
441.681874
 30
0.0
 10
212.485881
 20
438.693591
 30
0.0
  0
SPLINE
  5
114
100
AcDbEntity
  8
Layer_1
 62
7
100
AcDbSpline
 70
8
 71
3
 72
8
 73
4
 74
0
 40
0
 40
0
 40
0
 40
0
 40
1
 40
1
 40
1
 40
1
 10
212.485881
 20
438.693591
 30
0.0
 10
212.485881
 20
435.705335
 30
0.0
 10
211.445847
 20
434.108665
 30
0.0
 10
209.644095
 20
434.108665
 30
0.0
  0
LWPOLYLINE
  5
115
100
AcDbEntity
  8
Layer_1
 62
7
100
AcDbPolyline
 90
1
 70
1
 10
192.417585
 20
433.830331
 30
0.0
  0
SPLINE
  5
116
100
AcDbEntity
  8
Layer_1
 62
7
100
AcDbSpline
 70
8
 71
3
 72
8
 73
4
 74
0
 40
0
 40
0
 40
0
 40
0
 40
1
 40
1
 40
1
 40
1
 10
209.570848
 20
424.689732
 30
0.0
 10
214.097202
 20
424.689732
 30
0.0
 10
216.953637
 20
426.667266
 30
0.0
 10
216.953637
 20
430.812765
 30
0.0
  0
LWPOLYLINE
  5
117
100
AcDbEntity
  8
Layer_1
 62
7
100
AcDbPolyline
 90
1
 70
1
 10
209.644095
 20
434.108665
 30
0.0
  0
SPLINE
  5
118
100
AcDbEntity
  8
Layer_1
 62
7
100
AcDbSpline
 70
8
 71
3
 72
8
 73
4
 74
0
 40
0
 40
0
 40
0
 40
0
 40
1
 40
1
 40
1
 40
1
 10
212.354042
 20
444.157455
 30
0.0
 10
211.636270
 20
445.856655
 30
0.0
 10
210.068892
 20
446.867405
 30
0.0
 10
208.062062
 20
446.867405
 30
0.0
  0
SPLINE
  5
119
100
AcDbEntity
  8
Layer_1
 62
7
100
AcDbSpline
 70
8
 71
3
 72
8
 73
4
 74
0
 40
0
 40
0
 40
0
 40
0
 40
1
 40
1
 40
1
 40
1
 10
208.062062
 20
446.867405
 30
0.0
 10
204.370668
 20
446.867405
 30
0.0
 10
202.202705
 20
443.893776
 30
0.0
 10
202.202705
 20
438.693591
 30
0.0
  0
SPLINE
  5
11a
100
AcDbEntity
  8
Layer_1
 62
7
100
AcDbSpline
 70
8
 71
3
 72
8
 73
4
 74
0
 40
0
 40
0
 40
0
 40
0
 40
1
 40
1
 40
1
 40
1
 10
202.202705
 20
438.693591
 30
0.0
 10
202.202705
 20
433.610617
 30
0.0
 10
204.356018
 20
430.666271
 30
0.0
 10
207.988821
 20
430.666271
 30
0.0
  0
SPLINE
  5
11b
100
AcDbEntity
  8
Layer_1
 62
7
100
AcDbSpline
 70
8
 71
3
 72
8
 73
4
 74
0
 40
0
 40
0
 40
0
 40
0
 40
1
 40
1
 40
1
 40
1
 10
207.988821
 20
430.666271
 30
0.0
 10
210.083539
 20
430.666271
 30
0.0
 10
211.533729
 20
431.559836
 30
0.0
 10
212.266151
 20
433.215099
 30
0.0
  0
LWPOLYLINE
  5
11c
100
AcDbEntity
  8
Layer_1
 62
7
100
AcDbPolyline
 90
5
 70
0
 10
216.953637
 20
430.812765
 30
0.0
 10
216.953637
 20
446.633036
 30
0.0
 10
212.544473
 20
446.633036
 30
0.0
 10
212.544473
 20
444.157455
 30
0.0
 10
212.354042
 20
444.157455
 30
0.0
  0
SPLINE
  5
11d
100
AcDbEntity
  8
Layer_1
 62
7
100
AcDbSpline
 70
8
 71
3
 72
8
 73
4
 74
0
 40
0
 40
0
 40
0
 40
0
 40
1
 40
1
 40
1
 40
1
 10
212.456582
 20
430.636989
 30
0.0
 10
212.456582
 20
428.659455
 30
0.0
 10
211.504436
 20
427.751263
 30
0.0
 10
209.673388
 20
427.751263
 30
0.0
  0
SPLINE
  5
11e
100
AcDbEntity
  8
Layer_1
 62
7
100
AcDbSpline
 70
8
 71
3
 72
8
 73
4
 74
0
 40
0
 40
0
 40
0
 40
0
 40
1
 40
1
 40
1
 40
1
 10
209.673388
 20
427.751263
 30
0.0
 10
208.193902
 20
427.751263
 30
0.0
 10
207.256402
 20
428.278592
 30
0.0
 10
207.051327
 20
429.289342
 30
0.0
  0
LWPOLYLINE
  5
11f
100
AcDbEntity
  8
Layer_1
 62
7
100
AcDbPolyline
 90
3
 70
0
 10
212.266151
 20
433.215099
 30
0.0
 10
212.456582
 20
433.215099
 30
0.0
 10
212.456582
 20
430.636989
 30
0.0
  0
SPLINE
  5
120
100
AcDbEntity
  8
Layer_1
 62
7
100
AcDbSpline
 70
8
 71
3
 72
8
 73
4
 74
0
 40
0
 40
0
 40
0
 40
0
 40
1
 40
1
 40
1
 40
1
 10
202.759347
 20
429.289342
 30
0.0
 10
202.949779
 20
426.506145
 30
0.0
 10
205.483949
 20
424.689732
 30
0.0
 10
209.570848
 20
424.689732
 30
0.0
  0
LWPOLYLINE
  5
121
100
AcDbEntity
  8
Layer_1
 62
7
100
AcDbPolyline
 90
2
 70
0
 10
207.051327
 20
429.289342
 30
0.0
 10
202.759347
 20
429.289342
 30
0.0
  0
LWPOLYLINE
  5
122
100
AcDbEntity
  8
Layer_1
 62
7
100
AcDbPolyline
 90
1
 70
1
 10
209.570848
 20
424.689732
 30
0.0
  0
LWPOLYLINE
  5
123
100
AcDbEntity
  8
Layer_1
 62
7
100
AcDbPolyline
 90
4
 70
1
 10
220.645035
 20
430.461213
 30
0.0
 10
225.142089
 20
430.461213
 30
0.0
 10
225.142089
 20
452.389833
 30
0.0
 10
220.645035
 20
452.389833
 30
0.0
  0
SPLINE
  5
124
100
AcDbEntity
  8
Layer_1
 62
7
100
AcDbSpline
 70
8
 71
3
 72
8
 73
4
 74
0
 40
0
 40
0
 40
0
 40
0
 40
1
 40
1
 40
1
 40
1
 10
231.133280
 20
448.683789
 30
0.0
 10
232.671362
 20
448.683789
 30
0.0
 10
233.667451
 20
449.592009
 30
0.0
 10
233.667451
 20
450.866409
 30
0.0
  0
SPLINE
  5
125
100
AcDbEntity
  8
Layer_1
 62
7
100
AcDbSpline
 70
8
 71
3
 72
8
 73
4
 74
0
 40
0
 40
0
 40
0
 40
0
 40
1
 40
1
 40
1
 40
1
 10
233.667451
 20
450.866409
 30
0.0
 10
233.667451
 20
452.140809
 30
0.0
 10
232.671362
 20
453.034375
 30
0.0
 10
231.133280
 20
453.034375
 30
0.0
  0
SPLINE
  5
126
100
AcDbEntity
  8
Layer_1
 62
7
100
AcDbSpline
 70
8
 71
3
 72
8
 73
4
 74
0
 40
0
 40
0
 40
0
 40
0
 40
1
 40
1
 40
1
 40
1
 10
231.133280
 20
453.034375
 30
0.0
 10
229.609848
 20
453.034375
 30
0.0
 10
228.613757
 20
452.140809
 30
0.0
 10
228.613757
 20
450.866409
 30
0.0
  0
SPLINE
  5
127
100
AcDbEntity
  8
Layer_1
 62
7
100
AcDbSpline
 70
8
 71
3
 72
8
 73
4
 74
0
 40
0
 40
0
 40
0
 40
0
 40
1
 40
1
 40
1
 40
1
 10
228.613757
 20
450.866409
 30
0.0
 10
228.613757
 20
449.592009
 30
0.0
 10
229.609848
 20
448.683789
 30
0.0
 10
231.133280
 20
448.683789
 30
0.0
  0
LWPOLYLINE
  5
128
100
AcDbEntity
  8
Layer_1
 62
7
100
AcDbPolyline
 90
4
 70
1
 10
228.892076
 20
430.461213
 30
0.0
 10
233.389131
 20
430.461213
 30
0.0
 10
233.389131
 20
446.633036
 30
0.0
 10
228.892076
 20
446.633036
 30
0.0
  0
SPLINE
  5
129
100
AcDbEntity
  8
Layer_1
 62
7
100
AcDbSpline
 70
8
 71
3
 72
8
 73
4
 74
0
 40
0
 40
0
 40
0
 40
0
 40
1
 40
1
 40
1
 40
1
 10
242.222114
 20
430.241471
 30
0.0
 10
244.287536
 20
430.241471
 30
0.0
 10
245.825617
 20
431.252220
 30
0.0
 10
246.543389
 20
432.892828
 30
0.0
  0
LWPOLYLINE
  5
12a
100
AcDbEntity
  8
Layer_1
 62
7
100
AcDbPolyline
 90
1
 70
1
 10
231.133280
 20
448.683789
 30
0.0
  0
SPLINE
  5
12b
100
AcDbEntity
  8
Layer_1
 62
7
100
AcDbSpline
 70
8
 71
3
 72
8
 73
4
 74
0
 40
0
 40
0
 40
0
 40
0
 40
1
 40
1
 40
1
 40
1
 10
246.455490
 20
444.186737
 30
0.0
 10
245.752367
 20
445.871310
 30
0.0
 10
244.243585
 20
446.867405
 30
0.0
 10
242.222105
 20
446.867405
 30
0.0
  0
SPLINE
  5
12c
100
AcDbEntity
  8
Layer_1
 62
7
100
AcDbSpline
 70
8
 71
3
 72
8
 73
4
 74
0
 40
0
 40
0
 40
0
 40
0
 40
1
 40
1
 40
1
 40
1
 10
242.222105
 20
446.867405
 30
0.0
 10
238.545360
 20
446.867405
 30
0.0
 10
236.392047
 20
443.879121
 30
0.0
 10
236.392047
 20
438.576406
 30
0.0
  0
SPLINE
  5
12d
100
AcDbEntity
  8
Layer_1
 62
7
100
AcDbSpline
 70
8
 71
3
 72
8
 73
4
 74
0
 40
0
 40
0
 40
0
 40
0
 40
1
 40
1
 40
1
 40
1
 10
236.392047
 20
438.576406
 30
0.0
 10
236.392047
 20
433.259036
 30
0.0
 10
238.545360
 20
430.241471
 30
0.0
 10
242.222105
 20
430.241471
 30
0.0
  0
LWPOLYLINE
  5
12e
100
AcDbEntity
  8
Layer_1
 62
7
100
AcDbPolyline
 90
8
 70
0
 10
246.543389
 20
432.892828
 30
0.0
 10
246.748476
 20
432.892828
 30
0.0
 10
246.748476
 20
430.461213
 30
0.0
 10
251.157640
 20
430.461213
 30
0.0
 10
251.157640
 20
452.389833
 30
0.0
 10
246.660576
 20
452.389833
 30
0.0
 10
246.660576
 20
444.186737
 30
0.0
 10
246.455490
 20
444.186737
 30
0.0
  0
SPLINE
  5
12f
100
AcDbEntity
  8
Layer_1
 62
7
100
AcDbSpline
 70
8
 71
3
 72
8
 73
4
 74
0
 40
0
 40
0
 40
0
 40
0
 40
1
 40
1
 40
1
 40
1
 10
243.833437
 20
443.278545
 30
0.0
 10
245.635189
 20
443.278545
 30
0.0
 10
246.675226
 20
441.637937
 30
0.0
 10
246.675226
 20
438.547124
 30
0.0
  0
SPLINE
  5
130
100
AcDbEntity
  8
Layer_1
 62
7
100
AcDbSpline
 70
8
 71
3
 72
8
 73
4
 74
0
 40
0
 40
0
 40
0
 40
0
 40
1
 40
1
 40
1
 40
1
 10
246.675226
 20
438.547124
 30
0.0
 10
246.675226
 20
435.456312
 30
0.0
 10
245.635189
 20
433.830331
 30
0.0
 10
243.833437
 20
433.830331
 30
0.0
  0
SPLINE
  5
131
100
AcDbEntity
  8
Layer_1
 62
7
100
AcDbSpline
 70
8
 71
3
 72
8
 73
4
 74
0
 40
0
 40
0
 40
0
 40
0
 40
1
 40
1
 40
1
 40
1
 10
243.833437
 20
433.830331
 30
0.0
 10
242.017036
 20
433.830331
 30
0.0
 10
241.006297
 20
435.456312
 30
0.0
 10
241.006297
 20
438.561751
 30
0.0
  0
SPLINE
  5
132
100
AcDbEntity
  8
Layer_1
 62
7
100
AcDbSpline
 70
8
 71
3
 72
8
 73
4
 74
0
 40
0
 40
0
 40
0
 40
0
 40
1
 40
1
 40
1
 40
1
 10
241.006297
 20
438.561751
 30
0.0
 10
241.006297
 20
441.652564
 30
0.0
 10
242.031685
 20
443.278545
 30
0.0
 10
243.833437
 20
443.278545
 30
0.0
  0
LWPOLYLINE
  5
133
100
AcDbEntity
  8
Layer_1
 62
7
100
AcDbPolyline
 90
1
 70
1
 10
242.222105
 20
430.241471
 30
0.0
  0
SPLINE
  5
134
100
AcDbEntity
  8
Layer_1
 62
7
100
AcDbSpline
 70
8
 71
3
 72
8
 73
4
 74
0
 40
0
 40
0
 40
0
 40
0
 40
1
 40
1
 40
1
 40
1
 10
261.382209
 20
443.659408
 30
0.0
 10
262.978886
 20
443.659408
 30
0.0
 10
263.931029
 20
442.472882
 30
0.0
 10
264.004271
 20
440.246324
 30
0.0
  0
LWPOLYLINE
  5
135
100
AcDbEntity
  8
Layer_1
 62
7
100
AcDbPolyline
 90
1
 70
1
 10
243.833437
 20
443.278545
 30
0.0
  0
SPLINE
  5
136
100
AcDbEntity
  8
Layer_1
 62
7
100
AcDbSpline
 70
8
 71
3
 72
8
 73
4
 74
0
 40
0
 40
0
 40
0
 40
0
 40
1
 40
1
 40
1
 40
1
 10
258.657610
 20
440.246324
 30
0.0
 10
258.774795
 20
442.443600
 30
0.0
 10
259.785536
 20
443.659408
 30
0.0
 10
261.382209
 20
443.659408
 30
0.0
  0
LWPOLYLINE
  5
137
100
AcDbEntity
  8
Layer_1
 62
7
100
AcDbPolyline
 90
2
 70
0
 10
264.004271
 20
440.246324
 30
0.0
 10
258.657610
 20
440.246324
 30
0.0
  0
SPLINE
  5
138
100
AcDbEntity
  8
Layer_1
 62
7
100
AcDbSpline
 70
8
 71
3
 72
8
 73
4
 74
0
 40
0
 40
0
 40
0
 40
0
 40
1
 40
1
 40
1
 40
1
 10
264.092162
 20
435.251225
 30
0.0
 10
263.755250
 20
433.991480
 30
0.0
 10
262.847049
 20
433.434841
 30
0.0
 10
261.514046
 20
433.434841
 30
0.0
  0
SPLINE
  5
139
100
AcDbEntity
  8
Layer_1
 62
7
100
AcDbSpline
 70
8
 71
3
 72
8
 73
4
 74
0
 40
0
 40
0
 40
0
 40
0
 40
1
 40
1
 40
1
 40
1
 10
261.514046
 20
433.434841
 30
0.0
 10
259.726941
 20
433.434841
 30
0.0
 10
258.657610
 20
434.782488
 30
0.0
 10
258.628311
 20
437.272696
 30
0.0
  0
LWPOLYLINE
  5
13a
100
AcDbEntity
  8
Layer_1
 62
7
100
AcDbPolyline
 90
1
 70
1
 10
261.382209
 20
443.659408
 30
0.0
  0
SPLINE
  5
13b
100
AcDbEntity
  8
Layer_1
 62
7
100
AcDbSpline
 70
8
 71
3
 72
8
 73
4
 74
0
 40
0
 40
0
 40
0
 40
0
 40
1
 40
1
 40
1
 40
1
 10
268.310900
 20
438.840227
 30
0.0
 10
268.310900
 20
444.069694
 30
0.0
 10
265.747431
 20
446.955420
 30
0.0
 10
261.338264
 20
446.955420
 30
0.0
  0
SPLINE
  5
13c
100
AcDbEntity
  8
Layer_1
 62
7
100
AcDbSpline
 70
8
 71
3
 72
8
 73
4
 74
0
 40
0
 40
0
 40
0
 40
0
 40
1
 40
1
 40
1
 40
1
 10
261.338264
 20
446.955420
 30
0.0
 10
256.855859
 20
446.955420
 30
0.0
 10
254.204498
 20
443.879263
 30
0.0
 10
254.204498
 20
438.459364
 30
0.0
  0
SPLINE
  5
13d
100
AcDbEntity
  8
Layer_1
 62
7
100
AcDbSpline
 70
8
 71
3
 72
8
 73
4
 74
0
 40
0
 40
0
 40
0
 40
0
 40
1
 40
1
 40
1
 40
1
 10
254.204498
 20
438.459364
 30
0.0
 10
254.204498
 20
433.054120
 30
0.0
 10
256.797264
 20
430.139083
 30
0.0
 10
261.411506
 20
430.139083
 30
0.0
  0
SPLINE
  5
13e
100
AcDbEntity
  8
Layer_1
 62
7
100
AcDbSpline
 70
8
 71
3
 72
8
 73
4
 74
0
 40
0
 40
0
 40
0
 40
0
 40
1
 40
1
 40
1
 40
1
 10
261.411506
 20
430.139083
 30
0.0
 10
265.132199
 20
430.139083
 30
0.0
 10
267.651720
 20
431.984778
 30
0.0
 10
268.179063
 20
435.251367
 30
0.0
  0
LWPOLYLINE
  5
13f
100
AcDbEntity
  8
Layer_1
 62
7
100
AcDbPolyline
 90
4
 70
0
 10
258.628311
 20
437.272696
 30
0.0
 10
258.628311
 20
437.521861
 30
0.0
 10
268.310900
 20
437.521861
 30
0.0
 10
268.310900
 20
438.840227
 30
0.0
  0
LWPOLYLINE
  5
140
100
AcDbEntity
  8
Layer_1
 62
7
100
AcDbPolyline
 90
2
 70
0
 10
268.179063
 20
435.251367
 30
0.0
 10
264.092162
 20
435.251225
 30
0.0
  0
SPLINE
  5
141
100
AcDbEntity
  8
Layer_1
 62
7
100
AcDbSpline
 70
8
 71
3
 72
8
 73
4
 74
0
 40
0
 40
0
 40
0
 40
0
 40
1
 40
1
 40
1
 40
1
 10
275.722982
 20
439.352787
 30
0.0
 10
275.722982
 20
441.681874
 30
0.0
 10
277.012040
 20
443.000239
 30
0.0
 10
279.121408
 20
443.000239
 30
0.0
  0
SPLINE
  5
142
100
AcDbEntity
  8
Layer_1
 62
7
100
AcDbSpline
 70
8
 71
3
 72
8
 73
4
 74
0
 40
0
 40
0
 40
0
 40
0
 40
1
 40
1
 40
1
 40
1
 10
279.121408
 20
443.000239
 30
0.0
 10
279.780585
 20
443.000239
 30
0.0
 10
280.571598
 20
442.883169
 30
0.0
 10
280.937809
 20
442.736617
 30
0.0
  0
LWPOLYLINE
  5
143
100
AcDbEntity
  8
Layer_1
 62
7
100
AcDbPolyline
 90
3
 70
0
 10
271.240574
 20
430.461213
 30
0.0
 10
275.722982
 20
430.461213
 30
0.0
 10
275.722982
 20
439.352787
 30
0.0
  0
SPLINE
  5
144
100
AcDbEntity
  8
Layer_1
 62
7
100
AcDbSpline
 70
8
 71
3
 72
8
 73
4
 74
0
 40
0
 40
0
 40
0
 40
0
 40
1
 40
1
 40
1
 40
1
 10
280.937809
 20
446.662375
 30
0.0
 10
280.586248
 20
446.794186
 30
0.0
 10
279.985663
 20
446.852863
 30
0.0
 10
279.429024
 20
446.852863
 30
0.0
  0
SPLINE
  5
145
100
AcDbEntity
  8
Layer_1
 62
7
100
AcDbSpline
 70
8
 71
3
 72
8
 73
4
 74
0
 40
0
 40
0
 40
0
 40
0
 40
1
 40
1
 40
1
 40
1
 10
279.429024
 20
446.852863
 30
0.0
 10
277.612622
 20
446.852863
 30
0.0
 10
276.250323
 20
445.812831
 30
0.0
 10
275.810871
 20
443.981792
 30
0.0
  0
LWPOLYLINE
  5
146
100
AcDbEntity
  8
Layer_1
 62
7
100
AcDbPolyline
 90
2
 70
0
 10
280.937809
 20
442.736617
 30
0.0
 10
280.937809
 20
446.662375
 30
0.0
  0
LWPOLYLINE
  5
147
100
AcDbEntity
  8
Layer_1
 62
7
100
AcDbPolyline
 90
5
 70
0
 10
275.810871
 20
443.981792
 30
0.0
 10
275.620439
 20
443.981792
 30
0.0
 10
275.620439
 20
446.633150
 30
0.0
 10
271.240571
 20
446.633150
 30
0.0
 10
271.240574
 20
430.461213
 30
0.0
  0
LWPOLYLINE
  5
148
100
AcDbEntity
  8
Layer_1
 62
7
100
AcDbPolyline
 90
16
 70
1
 10
299.942674
 20
430.461213
 30
0.0
 10
299.942674
 20
441.734627
 30
0.0
 10
297.786416
 20
441.734627
 30
0.0
 10
294.841106
 20
433.047146
 30
0.0
 10
294.731688
 20
433.047146
 30
0.0
 10
291.778583
 20
441.734627
 30
0.0
 10
289.614529
 20
441.734627
 30
0.0
 10
289.614529
 20
430.461213
 30
0.0
 10
291.231694
 20
430.461213
 30
0.0
 10
291.231694
 20
438.789317
 30
0.0
 10
291.325521
 20
438.789317
 30
0.0
 10
294.114557
 20
430.648696
 30
0.0
 10
295.450498
 20
430.648696
 30
0.0
 10
298.231767
 20
438.789317
 30
0.0
 10
298.333247
 20
438.789317
 30
0.0
 10
298.333247
 20
430.461213
 30
0.0
  0
LWPOLYLINE
  5
149
100
AcDbEntity
  8
Layer_1
 62
7
100
AcDbPolyline
 90
13
 70
1
 10
304.153597
 20
435.367446
 30
0.0
 10
304.059770
 20
435.367446
 30
0.0
 10
304.059770
 20
442.086208
 30
0.0
 10
302.372277
 20
442.086208
 30
0.0
 10
302.372277
 20
430.461213
 30
0.0
 10
304.059770
 20
430.461213
 30
0.0
 10
304.059770
 20
433.453380
 30
0.0
 10
304.708195
 20
434.195575
 30
0.0
 10
307.247272
 20
430.461213
 30
0.0
 10
309.231638
 20
430.461213
 30
0.0
 10
305.942570
 20
435.312765
 30
0.0
 10
309.036331
 20
438.953386
 30
0.0
 10
307.122265
 20
438.953386
 30
0.0
  0
LWPOLYLINE
  5
14a
100
AcDbEntity
  8
Layer_1
 62
7
100
AcDbPolyline
 90
4
 70
1
 10
316.497345
 20
430.461213
 30
0.0
 10
316.497345
 20
441.734627
 30
0.0
 10
314.739524
 20
441.734627
 30
0.0
 10
314.739524
 20
430.461213
 30
0.0
  0
LWPOLYLINE
  5
14b
100
AcDbEntity
  8
Layer_1
 62
7
100
AcDbPolyline
 90
4
 70
1
 10
122.309223
 20
455.433902
 30
0.0
 10
132.230483
 20
455.433902
 30
0.0
 10
132.230483
 20
445.512643
 30
0.0
 10
122.309223
 20
445.512643
 30
0.0
  0
LWPOLYLINE
  5
14c
100
AcDbEntity
  8
Layer_1
 62
7
100
AcDbPolyline
 90
4
 70
1
 10
133.647806
 20
444.095320
 30
0.0
 10
143.569066
 20
444.095320
 30
0.0
 10
143.569066
 20
434.174060
 30
0.0
 10
133.647806
 20
434.174060
 30
0.0
  0
LWPOLYLINE
  5
14d
100
AcDbEntity
  8
Layer_1
 62
7
100
AcDbPolyline
 90
4
 70
1
 10
144.986389
 20
455.433902
 30
0.0
 10
154.907649
 20
455.433902
 30
0.0
 10
154.907649
 20
445.512643
 30
0.0
 10
144.986389
 20
445.512643
 30
0.0
  0
LWPOLYLINE
  5
14e
100
AcDbEntity
  8
Layer_1
 62
7
100
AcDbPolyline
 90
4
 70
1
 10
144.986389
 20
444.095320
 30
0.0
 10
154.907649
 20
444.095320
 30
0.0
 10
154.907649
 20
434.174060
 30
0.0
 10
144.986389
 20
434.174060
 30
0.0
  0
LWPOLYLINE
  5
14f
100
AcDbEntity
  8
Layer_1
 62
7
100
AcDbPolyline
 90
4
 70
1
 10
133.647806
 20
432.756737
 30
0.0
 10
143.569066
 20
432.756737
 30
0.0
 10
143.569066
 20
422.835477
 30
0.0
 10
133.647806
 20
422.835477
 30
0.0
  0
ENDSEC
  0
SECTION
  2
OBJECTS
  0
DICTIONARY
  5
C
330
0
100
AcDbDictionary
  3
ACAD_GROUP
350
D
  3
ACAD_MLINESTYLE
350
17
  0
DICTIONARY
  5
D
330
C
100
AcDbDictionary
  0
DICTIONARY
  5
1A
330
C
100
AcDbDictionary
  0
DICTIONARY
  5
17
330
C
100
AcDbDictionary
  3
STANDARD
350
18
  0
DICTIONARY
  5
19
330
C
100
AcDbDictionary
  0
ENDSEC
  0
EOF
