G04 #@! TF.GenerationSoftware,KiCad,Pcbnew,(5.1.8-0-10_14)*
G04 #@! TF.CreationDate,2021-01-01T21:21:00+09:00*
G04 #@! TF.ProjectId,keyboard,6b657962-6f61-4726-942e-6b696361645f,rev?*
G04 #@! TF.SameCoordinates,Original*
G04 #@! TF.FileFunction,Copper,L2,Bot*
G04 #@! TF.FilePolarity,Positive*
%FSLAX46Y46*%
G04 Gerber Fmt 4.6, Leading zero omitted, Abs format (unit mm)*
G04 Created by KiCad (PCBNEW (5.1.8-0-10_14)) date 2021-01-01 21:21:00*
%MOMM*%
%LPD*%
G01*
G04 APERTURE LIST*
G04 #@! TA.AperFunction,ComponentPad*
%ADD10O,1.700000X1.700000*%
G04 #@! TD*
G04 #@! TA.AperFunction,ComponentPad*
%ADD11R,1.700000X1.700000*%
G04 #@! TD*
G04 #@! TA.AperFunction,SMDPad,CuDef*
%ADD12R,2.550000X2.500000*%
G04 #@! TD*
G04 #@! TA.AperFunction,SMDPad,CuDef*
%ADD13R,1.200000X0.900000*%
G04 #@! TD*
G04 #@! TA.AperFunction,ViaPad*
%ADD14C,0.800000*%
G04 #@! TD*
G04 #@! TA.AperFunction,Conductor*
%ADD15C,0.300000*%
G04 #@! TD*
G04 APERTURE END LIST*
D10*
X292100000Y-27200000D03*
X292100000Y-24660000D03*
X292100000Y-22120000D03*
X292100000Y-19580000D03*
X292100000Y-17040000D03*
X292100000Y-14500000D03*
X292100000Y-11960000D03*
X292100000Y-9420000D03*
X292100000Y-6880000D03*
X292100000Y-4340000D03*
D11*
X292100000Y-1800000D03*
D10*
X288290000Y-27200000D03*
X288290000Y-24660000D03*
X288290000Y-22120000D03*
X288290000Y-19580000D03*
X288290000Y-17040000D03*
X288290000Y-14500000D03*
X288290000Y-11960000D03*
X288290000Y-9420000D03*
X288290000Y-6880000D03*
X288290000Y-4340000D03*
D11*
X288290000Y-1800000D03*
D12*
X310642000Y-80645000D03*
X297715000Y-83185000D03*
X291592000Y-80645000D03*
X278665000Y-83185000D03*
X272542000Y-80645000D03*
X259615000Y-83185000D03*
X243967000Y-80645000D03*
X231040000Y-83185000D03*
X224917000Y-80645000D03*
X211990000Y-83185000D03*
X205867000Y-80645000D03*
X192940000Y-83185000D03*
X136811000Y-80645000D03*
X123884000Y-83185000D03*
X65373200Y-80645000D03*
X52446200Y-83185000D03*
X41560800Y-80645000D03*
X28633800Y-83185000D03*
X17748200Y-80645000D03*
X4821200Y-83185000D03*
X310642000Y-61595000D03*
X297715000Y-64135000D03*
X291592000Y-61595000D03*
X278665000Y-64135000D03*
X255873000Y-61595000D03*
X242946000Y-64135000D03*
X229680000Y-61595000D03*
X216753000Y-64135000D03*
X210630000Y-61595000D03*
X197703000Y-64135000D03*
X191580000Y-61595000D03*
X178653000Y-64135000D03*
X172530000Y-61595000D03*
X159603000Y-64135000D03*
X153480000Y-61595000D03*
X140553000Y-64135000D03*
X134430000Y-61595000D03*
X121503000Y-64135000D03*
X115380000Y-61595000D03*
X102453000Y-64135000D03*
X96329500Y-61595000D03*
X83402500Y-64135000D03*
X77279500Y-61595000D03*
X64352500Y-64135000D03*
X58229500Y-61595000D03*
X45302500Y-64135000D03*
X27273200Y-61595000D03*
X14346200Y-64135000D03*
X310642000Y-42545000D03*
X297715000Y-45085000D03*
X270161000Y-42545000D03*
X257234000Y-45085000D03*
X239204000Y-42545000D03*
X226277000Y-45085000D03*
X220154000Y-42545000D03*
X207227000Y-45085000D03*
X201104000Y-42545000D03*
X188177000Y-45085000D03*
X182054000Y-42545000D03*
X169127000Y-45085000D03*
X163004000Y-42545000D03*
X150077000Y-45085000D03*
X143954000Y-42545000D03*
X131027000Y-45085000D03*
X124904000Y-42545000D03*
X111977000Y-45085000D03*
X105854000Y-42545000D03*
X92927000Y-45085000D03*
X86804500Y-42545000D03*
X73877500Y-45085000D03*
X67754500Y-42545000D03*
X54827500Y-45085000D03*
X48704500Y-42545000D03*
X35777500Y-45085000D03*
X22510800Y-42545000D03*
X9583800Y-45085000D03*
X310642000Y-23495000D03*
X297715000Y-26035000D03*
X277304000Y-23495000D03*
X264377000Y-26035000D03*
X253492000Y-23495000D03*
X240565000Y-26035000D03*
X234442000Y-23495000D03*
X221515000Y-26035000D03*
X215392000Y-23495000D03*
X202465000Y-26035000D03*
X196342000Y-23495000D03*
X183415000Y-26035000D03*
X177292000Y-23495000D03*
X164365000Y-26035000D03*
X158242000Y-23495000D03*
X145315000Y-26035000D03*
X139192000Y-23495000D03*
X126265000Y-26035000D03*
X120142000Y-23495000D03*
X107215000Y-26035000D03*
X101092000Y-23495000D03*
X88165000Y-26035000D03*
X82042000Y-23495000D03*
X69115000Y-26035000D03*
X62992000Y-23495000D03*
X50065000Y-26035000D03*
X43942000Y-23495000D03*
X31015000Y-26035000D03*
X20129500Y-23495000D03*
X7202500Y-26035000D03*
X310642000Y-4445000D03*
X297715000Y-6985000D03*
X282067000Y-4445000D03*
X269140000Y-6985000D03*
X263017000Y-4445000D03*
X250090000Y-6985000D03*
X243967000Y-4445000D03*
X231040000Y-6985000D03*
X224917000Y-4445000D03*
X211990000Y-6985000D03*
X205867000Y-4445000D03*
X192940000Y-6985000D03*
X186817000Y-4445000D03*
X173890000Y-6985000D03*
X167767000Y-4445000D03*
X154840000Y-6985000D03*
X148717000Y-4445000D03*
X135790000Y-6985000D03*
X129667000Y-4445000D03*
X116740000Y-6985000D03*
X110617000Y-4445000D03*
X97690000Y-6985000D03*
X91567000Y-4445000D03*
X78640000Y-6985000D03*
X72517000Y-4445000D03*
X59590000Y-6985000D03*
X53467000Y-4445000D03*
X40540000Y-6985000D03*
X34417000Y-4445000D03*
X21490000Y-6985000D03*
X15367000Y-4445000D03*
X2440000Y-6985000D03*
D13*
X18050000Y-8375000D03*
X18050000Y-11675000D03*
X37100000Y-8375000D03*
X37100000Y-11675000D03*
X56150000Y-8375000D03*
X56150000Y-11675000D03*
X75200000Y-8375000D03*
X75200000Y-11675000D03*
X94250000Y-8375000D03*
X94250000Y-11675000D03*
X113300000Y-8375000D03*
X113300000Y-11675000D03*
X132350000Y-8375000D03*
X132350000Y-11675000D03*
X151400000Y-8375000D03*
X151400000Y-11675000D03*
X170450000Y-8375000D03*
X170450000Y-11675000D03*
X189500000Y-8375000D03*
X189500000Y-11675000D03*
X208550000Y-8375000D03*
X208550000Y-11675000D03*
X227600000Y-8375000D03*
X227600000Y-11675000D03*
X246650000Y-8375000D03*
X246650000Y-11675000D03*
X265700000Y-8375000D03*
X265700000Y-11675000D03*
X284750000Y-8375000D03*
X284750000Y-11675000D03*
X313325000Y-8375000D03*
X313325000Y-11675000D03*
X27575000Y-27425000D03*
X27575000Y-30725000D03*
X46625000Y-27425000D03*
X46625000Y-30725000D03*
X65675000Y-27425000D03*
X65675000Y-30725000D03*
X84725000Y-27425000D03*
X84725000Y-30725000D03*
X103775000Y-27425000D03*
X103775000Y-30725000D03*
X122825000Y-27425000D03*
X122825000Y-30725000D03*
X141875000Y-27425000D03*
X141875000Y-30725000D03*
X160925000Y-27425000D03*
X160925000Y-30725000D03*
X179975000Y-27425000D03*
X179975000Y-30725000D03*
X199025000Y-27425000D03*
X199025000Y-30725000D03*
X218075000Y-27425000D03*
X218075000Y-30725000D03*
X237125000Y-27425000D03*
X237125000Y-30725000D03*
X256175000Y-27425000D03*
X256175000Y-30725000D03*
X284750000Y-27425000D03*
X284750000Y-30725000D03*
X313325000Y-27425000D03*
X313325000Y-30725000D03*
X32337500Y-46475000D03*
X32337500Y-49775000D03*
X51387500Y-46475000D03*
X51387500Y-49775000D03*
X70437500Y-46475000D03*
X70437500Y-49775000D03*
X89487500Y-46475000D03*
X89487500Y-49775000D03*
X108538000Y-46475000D03*
X108538000Y-49775000D03*
X127588000Y-46475000D03*
X127588000Y-49775000D03*
X146638000Y-46475000D03*
X146638000Y-49775000D03*
X165688000Y-46475000D03*
X165688000Y-49775000D03*
X184738000Y-46475000D03*
X184738000Y-49775000D03*
X203788000Y-46475000D03*
X203788000Y-49775000D03*
X222838000Y-46475000D03*
X222838000Y-49775000D03*
X241888000Y-46475000D03*
X241888000Y-49775000D03*
X284750000Y-46475000D03*
X284750000Y-49775000D03*
X313325000Y-46475000D03*
X313325000Y-49775000D03*
X41862500Y-65525000D03*
X41862500Y-68825000D03*
X60912500Y-65525000D03*
X60912500Y-68825000D03*
X79962500Y-65525000D03*
X79962500Y-68825000D03*
X99012500Y-65525000D03*
X99012500Y-68825000D03*
X118062000Y-65525000D03*
X118062000Y-68825000D03*
X137112000Y-65525000D03*
X137112000Y-68825000D03*
X156162000Y-65525000D03*
X156162000Y-68825000D03*
X175212000Y-65525000D03*
X175212000Y-68825000D03*
X194262000Y-65525000D03*
X194262000Y-68825000D03*
X213312000Y-65525000D03*
X213312000Y-68825000D03*
X232362000Y-65525000D03*
X232362000Y-68825000D03*
X265700000Y-65525000D03*
X265700000Y-68825000D03*
X294275000Y-65525000D03*
X294275000Y-68825000D03*
X313325000Y-65525000D03*
X313325000Y-68825000D03*
X22812500Y-84575000D03*
X22812500Y-87875000D03*
X46625000Y-84575000D03*
X46625000Y-87875000D03*
X70437500Y-84575000D03*
X70437500Y-87875000D03*
X189500000Y-84575000D03*
X189500000Y-87875000D03*
X208550000Y-84575000D03*
X208550000Y-87875000D03*
X227600000Y-84575000D03*
X227600000Y-87875000D03*
X246650000Y-84575000D03*
X246650000Y-87875000D03*
X275225000Y-84575000D03*
X275225000Y-87875000D03*
X294275000Y-84575000D03*
X294275000Y-87875000D03*
X313325000Y-84575000D03*
X313325000Y-87875000D03*
D14*
X37717900Y-13959000D03*
X37717900Y-10025000D03*
X45681300Y-61223000D03*
X36509500Y-48982900D03*
X58183600Y-9730000D03*
X53644700Y-21761400D03*
X53345600Y-80664000D03*
X49557300Y-29249500D03*
X54594000Y-46979600D03*
X59614100Y-63954400D03*
X81516600Y-13759700D03*
X77662900Y-9880000D03*
X285290000Y-13759700D03*
X68912800Y-29249500D03*
X78476000Y-63447900D03*
X73553200Y-42953100D03*
X97576900Y-63927900D03*
X92884000Y-43228200D03*
X93352600Y-10622900D03*
X93352600Y-24184600D03*
X116615500Y-9979800D03*
X121494200Y-17040000D03*
X105886300Y-29249500D03*
X112435400Y-46942200D03*
X121333600Y-61223000D03*
X122966700Y-68291600D03*
X122966700Y-81334000D03*
X129297000Y-41655900D03*
X128225600Y-30112100D03*
X141197700Y-61191700D03*
X131914600Y-48994900D03*
X133278700Y-18481000D03*
X133278700Y-10025000D03*
X160677000Y-61191700D03*
X153589000Y-9730000D03*
X148187500Y-45085000D03*
X150211800Y-20755100D03*
X173877800Y-63451700D03*
X172127000Y-21720400D03*
X173062400Y-9880000D03*
X169114000Y-41655900D03*
X164318200Y-29249500D03*
X189022500Y-22519100D03*
X192541700Y-10004200D03*
X188169300Y-48749300D03*
X189022500Y-41625700D03*
X183797500Y-28333600D03*
X195711500Y-79448700D03*
X195711500Y-63849800D03*
X219500100Y-3256600D03*
X212751500Y-80664000D03*
X203236700Y-43701500D03*
X207840800Y-49020900D03*
X210004600Y-10025000D03*
X214182800Y-64135000D03*
X204319500Y-24434700D03*
X231500200Y-9186200D03*
X226236400Y-46935600D03*
X232230800Y-80664000D03*
X228306800Y-22405400D03*
X242427900Y-45085000D03*
X248994400Y-9880000D03*
X240784600Y-22769200D03*
X248748000Y-73487100D03*
X240784600Y-64135000D03*
X268527400Y-8864700D03*
X264674800Y-22769200D03*
X278218100Y-81183100D03*
X278218100Y-65987200D03*
X296528400Y-80695200D03*
X296528400Y-48748000D03*
X296528400Y-21761400D03*
X295657500Y-64462400D03*
X293067300Y-68825000D03*
X292115400Y-88095300D03*
X283463400Y-6788900D03*
X283463400Y-8375000D03*
D15*
X287089700Y-1800000D02*
X286197300Y-907600D01*
X286197300Y-907600D02*
X6917100Y-907600D01*
X6917100Y-907600D02*
X2440000Y-5384700D01*
X9583800Y-43484700D02*
X4821200Y-48247300D01*
X4821200Y-48247300D02*
X4821200Y-83185000D01*
X7202500Y-26035000D02*
X7202500Y-41103400D01*
X7202500Y-41103400D02*
X9583800Y-43484700D01*
X7202500Y-26035000D02*
X7202500Y-24434700D01*
X9583800Y-45085000D02*
X9583800Y-43484700D01*
X7202500Y-24434700D02*
X2440000Y-19672200D01*
X2440000Y-19672200D02*
X2440000Y-6985000D01*
X288290000Y-1800000D02*
X287089700Y-1800000D01*
X2440000Y-6985000D02*
X2440000Y-5384700D01*
X21490000Y-6985000D02*
X19864700Y-6985000D01*
X14346200Y-64135000D02*
X14346200Y-62534700D01*
X14346200Y-62534700D02*
X19042800Y-57838100D01*
X19042800Y-57838100D02*
X19042800Y-46237300D01*
X19042800Y-46237300D02*
X17332900Y-44527400D01*
X17332900Y-44527400D02*
X17332900Y-27468700D01*
X17332900Y-27468700D02*
X14958300Y-25094100D01*
X14958300Y-25094100D02*
X14958300Y-13208900D01*
X14958300Y-13208900D02*
X19864700Y-8302500D01*
X19864700Y-8302500D02*
X19864700Y-6985000D01*
X28633800Y-81584700D02*
X14346200Y-67297100D01*
X14346200Y-67297100D02*
X14346200Y-64135000D01*
X287089700Y-4340000D02*
X284169200Y-1419500D01*
X284169200Y-1419500D02*
X25455200Y-1419500D01*
X25455200Y-1419500D02*
X21490000Y-5384700D01*
X21490000Y-6985000D02*
X21490000Y-5384700D01*
X28633800Y-83185000D02*
X28633800Y-81584700D01*
X288290000Y-4340000D02*
X287089700Y-4340000D01*
X288290000Y-6880000D02*
X287089700Y-6880000D01*
X40540000Y-7074300D02*
X45610100Y-2004200D01*
X45610100Y-2004200D02*
X282711300Y-2004200D01*
X282711300Y-2004200D02*
X287089700Y-6382600D01*
X287089700Y-6382600D02*
X287089700Y-6880000D01*
X40540000Y-6985000D02*
X40540000Y-7074300D01*
X40540000Y-7154800D02*
X40540000Y-7074300D01*
X40540000Y-7154800D02*
X40540000Y-8585300D01*
X37717900Y-13959000D02*
X31015000Y-20661900D01*
X31015000Y-20661900D02*
X31015000Y-26035000D01*
X40540000Y-8585300D02*
X39157600Y-8585300D01*
X39157600Y-8585300D02*
X37717900Y-10025000D01*
X45681300Y-61223000D02*
X45302500Y-61601800D01*
X45302500Y-61601800D02*
X45302500Y-64135000D01*
X34964900Y-45085000D02*
X36509500Y-46629600D01*
X36509500Y-46629600D02*
X36509500Y-48982900D01*
X34964900Y-45085000D02*
X34152200Y-45085000D01*
X35777500Y-45085000D02*
X34964900Y-45085000D01*
X31015000Y-26035000D02*
X29389700Y-26035000D01*
X29389700Y-26035000D02*
X29389700Y-27270900D01*
X29389700Y-27270900D02*
X26624600Y-30036000D01*
X26624600Y-30036000D02*
X26624600Y-37557400D01*
X26624600Y-37557400D02*
X34152200Y-45085000D01*
X287089700Y-9420000D02*
X287089700Y-9140300D01*
X287089700Y-9140300D02*
X285496700Y-7547300D01*
X285496700Y-7547300D02*
X277562800Y-7547300D01*
X277562800Y-7547300D02*
X272521800Y-2506300D01*
X272521800Y-2506300D02*
X64113300Y-2506300D01*
X64113300Y-2506300D02*
X59590000Y-7029600D01*
X288290000Y-9420000D02*
X287089700Y-9420000D01*
X59590000Y-7029600D02*
X59590000Y-7074300D01*
X59590000Y-6985000D02*
X59590000Y-7029600D01*
X59590000Y-7154800D02*
X59590000Y-7074300D01*
X59590000Y-7154800D02*
X59590000Y-8585300D01*
X50065000Y-26035000D02*
X50065000Y-24434700D01*
X58183600Y-9730000D02*
X59328300Y-8585300D01*
X59328300Y-8585300D02*
X59590000Y-8585300D01*
X50065000Y-24434700D02*
X50971400Y-24434700D01*
X50971400Y-24434700D02*
X53644700Y-21761400D01*
X50065000Y-26817400D02*
X50065000Y-26035000D01*
X52446200Y-83185000D02*
X52446200Y-81584700D01*
X52446200Y-81584700D02*
X53345600Y-80685300D01*
X53345600Y-80685300D02*
X53345600Y-80664000D01*
X50065000Y-26817400D02*
X50065000Y-27635300D01*
X49557300Y-29249500D02*
X49557300Y-28143000D01*
X49557300Y-28143000D02*
X50065000Y-27635300D01*
X62727200Y-64135000D02*
X62399800Y-64462400D01*
X62399800Y-64462400D02*
X62295000Y-64462400D01*
X62295000Y-64462400D02*
X61787000Y-63954400D01*
X61787000Y-63954400D02*
X59614100Y-63954400D01*
X54594000Y-46979600D02*
X54827500Y-46746100D01*
X54827500Y-46746100D02*
X54827500Y-45085000D01*
X64352500Y-64135000D02*
X62727200Y-64135000D01*
X78640000Y-6985000D02*
X78640000Y-8585300D01*
X69115000Y-26035000D02*
X69115000Y-24434700D01*
X81516600Y-13759700D02*
X285290000Y-13759700D01*
X69115000Y-24434700D02*
X70841600Y-24434700D01*
X70841600Y-24434700D02*
X81516600Y-13759700D01*
X78640000Y-8585300D02*
X77662900Y-9562400D01*
X77662900Y-9562400D02*
X77662900Y-9880000D01*
X69115000Y-26035000D02*
X69115000Y-27635300D01*
X69115000Y-27635300D02*
X68912800Y-27837500D01*
X68912800Y-27837500D02*
X68912800Y-29249500D01*
X83402500Y-64135000D02*
X81777200Y-64135000D01*
X81777200Y-64135000D02*
X81090100Y-63447900D01*
X81090100Y-63447900D02*
X78476000Y-63447900D01*
X73877500Y-45085000D02*
X73877500Y-43277400D01*
X73877500Y-43277400D02*
X73553200Y-42953100D01*
X102453000Y-64135000D02*
X100827700Y-64135000D01*
X97576900Y-63927900D02*
X100620600Y-63927900D01*
X100620600Y-63927900D02*
X100827700Y-64135000D01*
X92927000Y-45085000D02*
X92927000Y-43271200D01*
X92927000Y-43271200D02*
X92884000Y-43228200D01*
X288290000Y-14500000D02*
X287089700Y-14500000D01*
X287089700Y-14500000D02*
X286544800Y-15044900D01*
X286544800Y-15044900D02*
X102492300Y-15044900D01*
X102492300Y-15044900D02*
X93352600Y-24184600D01*
X88165000Y-24434700D02*
X88572400Y-24434700D01*
X88572400Y-24434700D02*
X88822500Y-24184600D01*
X88822500Y-24184600D02*
X93352600Y-24184600D01*
X97690000Y-8585300D02*
X95652400Y-10622900D01*
X95652400Y-10622900D02*
X93352600Y-10622900D01*
X97690000Y-6985000D02*
X97690000Y-8585300D01*
X88165000Y-26035000D02*
X88165000Y-24434700D01*
X116740000Y-6985000D02*
X116740000Y-8585300D01*
X116615500Y-9979800D02*
X116615500Y-8709800D01*
X116615500Y-8709800D02*
X116740000Y-8585300D01*
X121494200Y-17040000D02*
X114609700Y-17040000D01*
X114609700Y-17040000D02*
X107215000Y-24434700D01*
X287089700Y-17040000D02*
X121494200Y-17040000D01*
X107215000Y-26035000D02*
X107215000Y-24434700D01*
X105886300Y-29249500D02*
X107215000Y-27920800D01*
X107215000Y-27920800D02*
X107215000Y-26035000D01*
X121503000Y-64135000D02*
X121503000Y-62534700D01*
X121503000Y-62534700D02*
X121333600Y-62365300D01*
X121333600Y-62365300D02*
X121333600Y-61223000D01*
X122966700Y-68291600D02*
X121503000Y-66827900D01*
X121503000Y-66827900D02*
X121503000Y-64135000D01*
X111977000Y-45085000D02*
X111977000Y-46685300D01*
X112435400Y-46942200D02*
X112178500Y-46685300D01*
X112178500Y-46685300D02*
X111977000Y-46685300D01*
X288290000Y-17040000D02*
X287089700Y-17040000D01*
X123884000Y-83185000D02*
X123884000Y-81584700D01*
X123884000Y-81584700D02*
X123217400Y-81584700D01*
X123217400Y-81584700D02*
X122966700Y-81334000D01*
X126265000Y-26035000D02*
X126265000Y-24434700D01*
X133278700Y-18924500D02*
X127768500Y-24434700D01*
X127768500Y-24434700D02*
X126265000Y-24434700D01*
X133278700Y-18924500D02*
X133934200Y-19580000D01*
X133934200Y-19580000D02*
X287089700Y-19580000D01*
X133278700Y-18481000D02*
X133278700Y-18924500D01*
X129297000Y-41655900D02*
X131027000Y-43385900D01*
X131027000Y-43385900D02*
X131027000Y-45085000D01*
X126265000Y-26035000D02*
X126265000Y-28318200D01*
X126265000Y-28318200D02*
X128058900Y-30112100D01*
X128058900Y-30112100D02*
X128225600Y-30112100D01*
X141197700Y-61191700D02*
X140553000Y-61836400D01*
X140553000Y-61836400D02*
X140553000Y-64135000D01*
X131027000Y-45085000D02*
X131027000Y-48107300D01*
X131027000Y-48107300D02*
X131914600Y-48994900D01*
X288290000Y-19580000D02*
X287089700Y-19580000D01*
X135790000Y-6985000D02*
X135790000Y-8585300D01*
X135790000Y-8585300D02*
X134718400Y-8585300D01*
X134718400Y-8585300D02*
X133278700Y-10025000D01*
X160677000Y-61191700D02*
X159603000Y-62265700D01*
X159603000Y-62265700D02*
X159603000Y-64135000D01*
X154840000Y-6985000D02*
X154840000Y-8585300D01*
X154840000Y-8585300D02*
X154733700Y-8585300D01*
X154733700Y-8585300D02*
X153589000Y-9730000D01*
X287089700Y-22120000D02*
X285606700Y-20637000D01*
X285606700Y-20637000D02*
X150329900Y-20637000D01*
X150329900Y-20637000D02*
X150211800Y-20755100D01*
X145315000Y-24434700D02*
X146532200Y-24434700D01*
X146532200Y-24434700D02*
X150211800Y-20755100D01*
X288290000Y-22120000D02*
X287089700Y-22120000D01*
X148451700Y-45085000D02*
X148187500Y-45085000D01*
X150077000Y-45085000D02*
X148451700Y-45085000D01*
X145315000Y-26035000D02*
X145315000Y-24434700D01*
X178653000Y-64135000D02*
X177027700Y-64135000D01*
X177027700Y-64135000D02*
X176344400Y-63451700D01*
X176344400Y-63451700D02*
X173877800Y-63451700D01*
X173890000Y-6985000D02*
X173890000Y-8585300D01*
X169114000Y-41655900D02*
X169127000Y-41668900D01*
X169127000Y-41668900D02*
X169127000Y-45085000D01*
X172127000Y-21720400D02*
X167079300Y-21720400D01*
X167079300Y-21720400D02*
X164365000Y-24434700D01*
X287089700Y-24660000D02*
X283567000Y-21137300D01*
X283567000Y-21137300D02*
X172710100Y-21137300D01*
X172710100Y-21137300D02*
X172127000Y-21720400D01*
X173890000Y-8585300D02*
X173062400Y-9412900D01*
X173062400Y-9412900D02*
X173062400Y-9880000D01*
X164365000Y-25234800D02*
X164318200Y-25281600D01*
X164318200Y-25281600D02*
X164318200Y-29249500D01*
X164365000Y-25234800D02*
X164365000Y-24434700D01*
X164365000Y-26035000D02*
X164365000Y-25234800D01*
X288290000Y-24660000D02*
X287089700Y-24660000D01*
X192940000Y-6985000D02*
X192940000Y-8585300D01*
X189022500Y-22519100D02*
X189904000Y-21637600D01*
X189904000Y-21637600D02*
X281527300Y-21637600D01*
X281527300Y-21637600D02*
X287089700Y-27200000D01*
X189022500Y-22519100D02*
X185330600Y-22519100D01*
X185330600Y-22519100D02*
X183415000Y-24434700D01*
X192940000Y-8585300D02*
X192541700Y-8983600D01*
X192541700Y-8983600D02*
X192541700Y-10004200D01*
X188177000Y-45085000D02*
X188177000Y-46685300D01*
X188177000Y-46685300D02*
X188169300Y-46693000D01*
X188169300Y-46693000D02*
X188169300Y-48749300D01*
X189022500Y-41625700D02*
X188177000Y-42471200D01*
X188177000Y-42471200D02*
X188177000Y-45085000D01*
X183415000Y-25234800D02*
X183797500Y-25617300D01*
X183797500Y-25617300D02*
X183797500Y-28333600D01*
X183415000Y-25234800D02*
X183415000Y-24434700D01*
X183415000Y-26035000D02*
X183415000Y-25234800D01*
X197703000Y-64135000D02*
X197703000Y-63874500D01*
X197703000Y-63874500D02*
X197678300Y-63849800D01*
X197678300Y-63849800D02*
X195711500Y-63849800D01*
X192940000Y-83185000D02*
X192940000Y-81584700D01*
X192940000Y-81584700D02*
X193575500Y-81584700D01*
X193575500Y-81584700D02*
X195711500Y-79448700D01*
X288290000Y-27200000D02*
X287089700Y-27200000D01*
X211990000Y-7029600D02*
X215763000Y-3256600D01*
X215763000Y-3256600D02*
X219500100Y-3256600D01*
X211990000Y-7029600D02*
X211990000Y-7074300D01*
X211990000Y-6985000D02*
X211990000Y-7029600D01*
X212751500Y-80664000D02*
X211990000Y-81425500D01*
X211990000Y-81425500D02*
X211990000Y-83185000D01*
X207227000Y-45085000D02*
X204620200Y-45085000D01*
X204620200Y-45085000D02*
X203236700Y-43701500D01*
X207227000Y-45085000D02*
X207227000Y-48407100D01*
X207227000Y-48407100D02*
X207840800Y-49020900D01*
X211990000Y-7154800D02*
X211990000Y-7074300D01*
X211990000Y-7154800D02*
X211990000Y-8585300D01*
X211990000Y-8585300D02*
X211444300Y-8585300D01*
X211444300Y-8585300D02*
X210004600Y-10025000D01*
X216753000Y-64135000D02*
X214182800Y-64135000D01*
X202465000Y-24434700D02*
X204319500Y-24434700D01*
X202465000Y-26035000D02*
X202465000Y-24434700D01*
X231040000Y-6985000D02*
X231040000Y-8585300D01*
X231040000Y-8585300D02*
X231500200Y-9045500D01*
X231500200Y-9045500D02*
X231500200Y-9186200D01*
X226277000Y-46685300D02*
X226277000Y-46895000D01*
X226277000Y-46895000D02*
X226236400Y-46935600D01*
X226277000Y-45085000D02*
X226277000Y-46685300D01*
X231040000Y-83185000D02*
X231040000Y-81584700D01*
X232230800Y-80664000D02*
X231310100Y-81584700D01*
X231310100Y-81584700D02*
X231040000Y-81584700D01*
X221515000Y-26035000D02*
X221515000Y-24434700D01*
X221515000Y-24434700D02*
X223544300Y-22405400D01*
X223544300Y-22405400D02*
X228306800Y-22405400D01*
X250090000Y-6985000D02*
X250090000Y-5384700D01*
X250090000Y-5384700D02*
X250386600Y-5088100D01*
X250386600Y-5088100D02*
X256053600Y-5088100D01*
X256053600Y-5088100D02*
X261715800Y-10750300D01*
X261715800Y-10750300D02*
X272011100Y-10750300D01*
X272011100Y-10750300D02*
X273148200Y-11887400D01*
X273148200Y-11887400D02*
X281517600Y-11887400D01*
X281517600Y-11887400D02*
X282715000Y-10690000D01*
X282715000Y-10690000D02*
X288780400Y-10690000D01*
X288780400Y-10690000D02*
X291390100Y-8080300D01*
X291390100Y-8080300D02*
X292100000Y-8080300D01*
X248994400Y-9880000D02*
X250090000Y-8784400D01*
X250090000Y-8784400D02*
X250090000Y-6985000D01*
X292100000Y-6880000D02*
X292100000Y-8080300D01*
X257234000Y-45085000D02*
X242427900Y-45085000D01*
X240565000Y-26035000D02*
X240565000Y-22988800D01*
X240565000Y-22988800D02*
X240784600Y-22769200D01*
X259615000Y-83185000D02*
X259615000Y-81584700D01*
X248748000Y-73487100D02*
X251517400Y-73487100D01*
X251517400Y-73487100D02*
X259615000Y-81584700D01*
X242946000Y-64135000D02*
X240784600Y-64135000D01*
X269140000Y-6985000D02*
X269140000Y-8585300D01*
X269140000Y-8585300D02*
X268806800Y-8585300D01*
X268806800Y-8585300D02*
X268527400Y-8864700D01*
X264377000Y-26035000D02*
X264377000Y-24434700D01*
X264377000Y-24434700D02*
X264674800Y-24136900D01*
X264674800Y-24136900D02*
X264674800Y-22769200D01*
X278665000Y-65735300D02*
X278470000Y-65735300D01*
X278470000Y-65735300D02*
X278218100Y-65987200D01*
X278665000Y-83185000D02*
X278665000Y-81584700D01*
X278665000Y-81584700D02*
X278619700Y-81584700D01*
X278619700Y-81584700D02*
X278218100Y-81183100D01*
X278665000Y-64135000D02*
X278665000Y-65735300D01*
X297715000Y-83185000D02*
X297715000Y-81584700D01*
X296528400Y-80695200D02*
X297417900Y-81584700D01*
X297417900Y-81584700D02*
X297715000Y-81584700D01*
X297715000Y-45085000D02*
X297715000Y-46685300D01*
X297715000Y-46685300D02*
X296528400Y-47871900D01*
X296528400Y-47871900D02*
X296528400Y-48748000D01*
X297715000Y-26035000D02*
X297715000Y-45085000D01*
X296528400Y-21761400D02*
X297715000Y-22948000D01*
X297715000Y-22948000D02*
X297715000Y-26035000D01*
X292100000Y-11960000D02*
X293300300Y-11960000D01*
X297715000Y-6985000D02*
X297715000Y-8585300D01*
X297715000Y-8585300D02*
X296675000Y-8585300D01*
X296675000Y-8585300D02*
X293300300Y-11960000D01*
X297715000Y-64135000D02*
X296089700Y-64135000D01*
X295657500Y-64462400D02*
X295762300Y-64462400D01*
X295762300Y-64462400D02*
X296089700Y-64135000D01*
X266650300Y-11675000D02*
X267363100Y-12387800D01*
X267363100Y-12387800D02*
X284437300Y-12387800D01*
X284437300Y-12387800D02*
X284750000Y-12075100D01*
X75200000Y-11675000D02*
X76150300Y-11675000D01*
X94725200Y-11675000D02*
X94497500Y-11902700D01*
X94497500Y-11902700D02*
X76378000Y-11902700D01*
X76378000Y-11902700D02*
X76150300Y-11675000D01*
X94725200Y-11675000D02*
X95200300Y-11675000D01*
X94250000Y-11675000D02*
X94725200Y-11675000D01*
X113537600Y-11675000D02*
X113337700Y-11874900D01*
X113337700Y-11874900D02*
X95400200Y-11874900D01*
X95400200Y-11874900D02*
X95200300Y-11675000D01*
X113537600Y-11675000D02*
X113775200Y-11675000D01*
X113300000Y-11675000D02*
X113537600Y-11675000D01*
X132825200Y-11675000D02*
X132625500Y-11874700D01*
X132625500Y-11874700D02*
X113974900Y-11874700D01*
X113974900Y-11874700D02*
X113775200Y-11675000D01*
X132825200Y-11675000D02*
X133300300Y-11675000D01*
X132350000Y-11675000D02*
X132825200Y-11675000D01*
X151875200Y-11675000D02*
X151675300Y-11874900D01*
X151675300Y-11874900D02*
X133500200Y-11874900D01*
X133500200Y-11874900D02*
X133300300Y-11675000D01*
X151875200Y-11675000D02*
X152350300Y-11675000D01*
X151400000Y-11675000D02*
X151875200Y-11675000D01*
X170687600Y-11675000D02*
X170464600Y-11898000D01*
X170464600Y-11898000D02*
X152573300Y-11898000D01*
X152573300Y-11898000D02*
X152350300Y-11675000D01*
X170687600Y-11675000D02*
X170925200Y-11675000D01*
X170450000Y-11675000D02*
X170687600Y-11675000D01*
X189975200Y-11675000D02*
X189777600Y-11872600D01*
X189777600Y-11872600D02*
X171122800Y-11872600D01*
X171122800Y-11872600D02*
X170925200Y-11675000D01*
X189975200Y-11675000D02*
X190450300Y-11675000D01*
X189500000Y-11675000D02*
X189975200Y-11675000D01*
X208787600Y-11675000D02*
X208592800Y-11869800D01*
X208592800Y-11869800D02*
X190645100Y-11869800D01*
X190645100Y-11869800D02*
X190450300Y-11675000D01*
X208787600Y-11675000D02*
X209025200Y-11675000D01*
X208550000Y-11675000D02*
X208787600Y-11675000D01*
X292100000Y-14500000D02*
X293300300Y-14500000D01*
X313325000Y-11675000D02*
X313325000Y-12475300D01*
X313325000Y-12475300D02*
X295325000Y-12475300D01*
X295325000Y-12475300D02*
X293300300Y-14500000D01*
X228075200Y-11675000D02*
X227861400Y-11888800D01*
X227861400Y-11888800D02*
X209239000Y-11888800D01*
X209239000Y-11888800D02*
X209025200Y-11675000D01*
X228075200Y-11675000D02*
X228550300Y-11675000D01*
X227600000Y-11675000D02*
X228075200Y-11675000D01*
X246887600Y-11675000D02*
X246647200Y-11915400D01*
X246647200Y-11915400D02*
X228790700Y-11915400D01*
X228790700Y-11915400D02*
X228550300Y-11675000D01*
X246887600Y-11675000D02*
X247125200Y-11675000D01*
X246650000Y-11675000D02*
X246887600Y-11675000D01*
X290899700Y-14500000D02*
X289699400Y-13299700D01*
X289699400Y-13299700D02*
X285974600Y-13299700D01*
X285974600Y-13299700D02*
X284750000Y-12075100D01*
X292100000Y-14500000D02*
X290899700Y-14500000D01*
X265700000Y-11675000D02*
X266650300Y-11675000D01*
X284750000Y-11675000D02*
X284750000Y-12075100D01*
X265700000Y-11675000D02*
X264749700Y-11675000D01*
X247125200Y-11675000D02*
X247323600Y-11873400D01*
X247323600Y-11873400D02*
X264551300Y-11873400D01*
X264551300Y-11873400D02*
X264749700Y-11675000D01*
X75200000Y-11675000D02*
X74249700Y-11675000D01*
X74249700Y-11675000D02*
X74040400Y-11884300D01*
X74040400Y-11884300D02*
X57309600Y-11884300D01*
X57309600Y-11884300D02*
X57100300Y-11675000D01*
X56150000Y-11675000D02*
X57100300Y-11675000D01*
X56150000Y-11675000D02*
X55199700Y-11675000D01*
X55199700Y-11675000D02*
X54990100Y-11884600D01*
X54990100Y-11884600D02*
X37784800Y-11884600D01*
X37784800Y-11884600D02*
X37575200Y-11675000D01*
X19000300Y-11675000D02*
X19204400Y-11879100D01*
X19204400Y-11879100D02*
X37371100Y-11879100D01*
X37371100Y-11879100D02*
X37575200Y-11675000D01*
X18050000Y-11675000D02*
X19000300Y-11675000D01*
X37100000Y-11675000D02*
X37575200Y-11675000D01*
X46625000Y-30725000D02*
X45674700Y-30725000D01*
X27575000Y-30725000D02*
X28525300Y-30725000D01*
X28525300Y-30725000D02*
X28719600Y-30919300D01*
X28719600Y-30919300D02*
X45480400Y-30919300D01*
X45480400Y-30919300D02*
X45674700Y-30725000D01*
X284750000Y-30725000D02*
X283799700Y-30725000D01*
X283799700Y-30725000D02*
X283562700Y-30962000D01*
X283562700Y-30962000D02*
X257362300Y-30962000D01*
X257362300Y-30962000D02*
X257125300Y-30725000D01*
X292100000Y-17638100D02*
X290195000Y-19543100D01*
X290195000Y-19543100D02*
X290195000Y-27035200D01*
X290195000Y-27035200D02*
X286505200Y-30725000D01*
X286505200Y-30725000D02*
X284750000Y-30725000D01*
X256175000Y-30725000D02*
X257125300Y-30725000D01*
X292100000Y-17638100D02*
X292100000Y-18240300D01*
X292100000Y-17040000D02*
X292100000Y-17638100D01*
X199025000Y-30725000D02*
X199975300Y-30725000D01*
X218550200Y-30725000D02*
X218296100Y-30979100D01*
X218296100Y-30979100D02*
X200229400Y-30979100D01*
X200229400Y-30979100D02*
X199975300Y-30725000D01*
X218550200Y-30725000D02*
X219025300Y-30725000D01*
X218075000Y-30725000D02*
X218550200Y-30725000D01*
X160925000Y-30725000D02*
X161875300Y-30725000D01*
X180450200Y-30725000D02*
X180255900Y-30919300D01*
X180255900Y-30919300D02*
X162069600Y-30919300D01*
X162069600Y-30919300D02*
X161875300Y-30725000D01*
X180450200Y-30725000D02*
X180925300Y-30725000D01*
X179975000Y-30725000D02*
X180450200Y-30725000D01*
X199025000Y-30725000D02*
X198074700Y-30725000D01*
X198074700Y-30725000D02*
X197880400Y-30919300D01*
X197880400Y-30919300D02*
X181119600Y-30919300D01*
X181119600Y-30919300D02*
X180925300Y-30725000D01*
X313325000Y-30725000D02*
X310265600Y-30725000D01*
X310265600Y-30725000D02*
X297780900Y-18240300D01*
X297780900Y-18240300D02*
X292100000Y-18240300D01*
X65675000Y-30725000D02*
X64724700Y-30725000D01*
X46625000Y-30725000D02*
X47575300Y-30725000D01*
X47575300Y-30725000D02*
X47769600Y-30919300D01*
X47769600Y-30919300D02*
X64530400Y-30919300D01*
X64530400Y-30919300D02*
X64724700Y-30725000D01*
X103775000Y-30919300D02*
X121680400Y-30919300D01*
X121680400Y-30919300D02*
X121874700Y-30725000D01*
X84725000Y-30725000D02*
X85675300Y-30725000D01*
X103775000Y-30919300D02*
X85869600Y-30919300D01*
X85869600Y-30919300D02*
X85675300Y-30725000D01*
X103775000Y-30725000D02*
X103775000Y-30919300D01*
X122825000Y-30725000D02*
X121874700Y-30725000D01*
X141875000Y-30924300D02*
X123974600Y-30924300D01*
X123974600Y-30924300D02*
X123775300Y-30725000D01*
X122825000Y-30725000D02*
X123775300Y-30725000D01*
X65675000Y-30725000D02*
X66625300Y-30725000D01*
X83501000Y-30919300D02*
X66819600Y-30919300D01*
X66819600Y-30919300D02*
X66625300Y-30725000D01*
X83774700Y-30725000D02*
X83580400Y-30919300D01*
X83580400Y-30919300D02*
X83501000Y-30919300D01*
X84725000Y-30725000D02*
X83774700Y-30725000D01*
X141875000Y-30924300D02*
X141875000Y-30725000D01*
X141875000Y-30924300D02*
X159775400Y-30924300D01*
X159775400Y-30924300D02*
X159974700Y-30725000D01*
X160925000Y-30725000D02*
X159974700Y-30725000D01*
X236174700Y-30725000D02*
X235975400Y-30924300D01*
X235975400Y-30924300D02*
X219224600Y-30924300D01*
X219224600Y-30924300D02*
X219025300Y-30725000D01*
X237125000Y-30725000D02*
X236174700Y-30725000D01*
X237125000Y-30725000D02*
X238075300Y-30725000D01*
X256175000Y-30725000D02*
X255224700Y-30725000D01*
X255224700Y-30725000D02*
X254992900Y-30956800D01*
X254992900Y-30956800D02*
X238307100Y-30956800D01*
X238307100Y-30956800D02*
X238075300Y-30725000D01*
X32337500Y-49775000D02*
X33287800Y-49775000D01*
X51862700Y-49775000D02*
X51637700Y-50000000D01*
X51637700Y-50000000D02*
X33512800Y-50000000D01*
X33512800Y-50000000D02*
X33287800Y-49775000D01*
X51862700Y-49775000D02*
X52337800Y-49775000D01*
X51387500Y-49775000D02*
X51862700Y-49775000D01*
X70912700Y-49775000D02*
X70713900Y-49973800D01*
X70713900Y-49973800D02*
X52536600Y-49973800D01*
X52536600Y-49973800D02*
X52337800Y-49775000D01*
X70912700Y-49775000D02*
X71387800Y-49775000D01*
X70437500Y-49775000D02*
X70912700Y-49775000D01*
X293310100Y-49775000D02*
X285700300Y-49775000D01*
X312374700Y-49775000D02*
X312142700Y-50007000D01*
X312142700Y-50007000D02*
X293542100Y-50007000D01*
X293542100Y-50007000D02*
X293310100Y-49775000D01*
X293310100Y-49775000D02*
X293310100Y-21617400D01*
X293310100Y-21617400D02*
X292473000Y-20780300D01*
X292473000Y-20780300D02*
X292100000Y-20780300D01*
X292100000Y-19580000D02*
X292100000Y-20780300D01*
X284750000Y-49775000D02*
X285700300Y-49775000D01*
X313325000Y-49775000D02*
X312374700Y-49775000D01*
X241888000Y-49775000D02*
X242838300Y-49775000D01*
X284750000Y-49775000D02*
X283799700Y-49775000D01*
X283799700Y-49775000D02*
X283587500Y-49987200D01*
X283587500Y-49987200D02*
X243050500Y-49987200D01*
X243050500Y-49987200D02*
X242838300Y-49775000D01*
X204738300Y-49775000D02*
X205039500Y-50076200D01*
X205039500Y-50076200D02*
X223012000Y-50076200D01*
X223012000Y-50076200D02*
X223313200Y-49775000D01*
X241412900Y-49775000D02*
X241888000Y-49775000D01*
X241412900Y-49775000D02*
X240937700Y-49775000D01*
X89962700Y-49775000D02*
X89714200Y-50023500D01*
X89714200Y-50023500D02*
X71636300Y-50023500D01*
X71636300Y-50023500D02*
X71387800Y-49775000D01*
X89962700Y-49775000D02*
X90437800Y-49775000D01*
X89487500Y-49775000D02*
X89962700Y-49775000D01*
X109013200Y-49775000D02*
X108764200Y-50024000D01*
X108764200Y-50024000D02*
X90686800Y-50024000D01*
X90686800Y-50024000D02*
X90437800Y-49775000D01*
X109013200Y-49775000D02*
X109488300Y-49775000D01*
X108538000Y-49775000D02*
X109013200Y-49775000D01*
X128063200Y-49775000D02*
X127813900Y-50024300D01*
X127813900Y-50024300D02*
X109737600Y-50024300D01*
X109737600Y-50024300D02*
X109488300Y-49775000D01*
X128063200Y-49775000D02*
X128538300Y-49775000D01*
X127588000Y-49775000D02*
X128063200Y-49775000D01*
X147113200Y-49775000D02*
X146863900Y-50024300D01*
X146863900Y-50024300D02*
X128787600Y-50024300D01*
X128787600Y-50024300D02*
X128538300Y-49775000D01*
X147113200Y-49775000D02*
X147588300Y-49775000D01*
X146638000Y-49775000D02*
X147113200Y-49775000D01*
X166163200Y-49775000D02*
X165913900Y-50024300D01*
X165913900Y-50024300D02*
X147837600Y-50024300D01*
X147837600Y-50024300D02*
X147588300Y-49775000D01*
X166163200Y-49775000D02*
X166638300Y-49775000D01*
X165688000Y-49775000D02*
X166163200Y-49775000D01*
X185213200Y-49775000D02*
X184963900Y-50024300D01*
X184963900Y-50024300D02*
X166887600Y-50024300D01*
X166887600Y-50024300D02*
X166638300Y-49775000D01*
X185213200Y-49775000D02*
X185688300Y-49775000D01*
X184738000Y-49775000D02*
X185213200Y-49775000D01*
X204263200Y-49775000D02*
X204013900Y-50024300D01*
X204013900Y-50024300D02*
X185937600Y-50024300D01*
X185937600Y-50024300D02*
X185688300Y-49775000D01*
X204263200Y-49775000D02*
X204738300Y-49775000D01*
X203788000Y-49775000D02*
X204263200Y-49775000D01*
X223313200Y-49775000D02*
X223788300Y-49775000D01*
X222838000Y-49775000D02*
X223313200Y-49775000D01*
X240937700Y-49775000D02*
X240688400Y-50024300D01*
X240688400Y-50024300D02*
X224037600Y-50024300D01*
X224037600Y-50024300D02*
X223788300Y-49775000D01*
X232362000Y-68825000D02*
X233312300Y-68825000D01*
X266175200Y-68825000D02*
X265928700Y-69071500D01*
X265928700Y-69071500D02*
X233558800Y-69071500D01*
X233558800Y-69071500D02*
X233312300Y-68825000D01*
X266175200Y-68825000D02*
X266650300Y-68825000D01*
X265700000Y-68825000D02*
X266175200Y-68825000D01*
X293067300Y-68825000D02*
X292821400Y-69070900D01*
X292821400Y-69070900D02*
X266896200Y-69070900D01*
X266896200Y-69070900D02*
X266650300Y-68825000D01*
X293324700Y-68825000D02*
X293067300Y-68825000D01*
X294275000Y-68825000D02*
X295225300Y-68825000D01*
X313325000Y-68825000D02*
X312374700Y-68825000D01*
X312374700Y-68825000D02*
X312178600Y-69021100D01*
X312178600Y-69021100D02*
X295421400Y-69021100D01*
X295421400Y-69021100D02*
X295225300Y-68825000D01*
X294275000Y-68825000D02*
X293324700Y-68825000D01*
X232362000Y-68825000D02*
X231411700Y-68825000D01*
X41862500Y-68825000D02*
X42812800Y-68825000D01*
X61387700Y-68825000D02*
X61187000Y-69025700D01*
X61187000Y-69025700D02*
X43013500Y-69025700D01*
X43013500Y-69025700D02*
X42812800Y-68825000D01*
X61387700Y-68825000D02*
X61862800Y-68825000D01*
X60912500Y-68825000D02*
X61387700Y-68825000D01*
X80437700Y-68825000D02*
X80234300Y-69028400D01*
X80234300Y-69028400D02*
X62066200Y-69028400D01*
X62066200Y-69028400D02*
X61862800Y-68825000D01*
X80437700Y-68825000D02*
X80912800Y-68825000D01*
X79962500Y-68825000D02*
X80437700Y-68825000D01*
X99487700Y-68825000D02*
X99280100Y-69032600D01*
X99280100Y-69032600D02*
X81120400Y-69032600D01*
X81120400Y-69032600D02*
X80912800Y-68825000D01*
X99487700Y-68825000D02*
X99962800Y-68825000D01*
X99012500Y-68825000D02*
X99487700Y-68825000D01*
X118537200Y-68825000D02*
X118325400Y-69036800D01*
X118325400Y-69036800D02*
X100174600Y-69036800D01*
X100174600Y-69036800D02*
X99962800Y-68825000D01*
X118537200Y-68825000D02*
X119012300Y-68825000D01*
X118062000Y-68825000D02*
X118537200Y-68825000D01*
X137587200Y-68825000D02*
X137367200Y-69045000D01*
X137367200Y-69045000D02*
X119232300Y-69045000D01*
X119232300Y-69045000D02*
X119012300Y-68825000D01*
X137587200Y-68825000D02*
X138062300Y-68825000D01*
X137112000Y-68825000D02*
X137587200Y-68825000D01*
X156637200Y-68825000D02*
X156434400Y-69027800D01*
X156434400Y-69027800D02*
X138265100Y-69027800D01*
X138265100Y-69027800D02*
X138062300Y-68825000D01*
X156637200Y-68825000D02*
X157112300Y-68825000D01*
X156162000Y-68825000D02*
X156637200Y-68825000D01*
X175687200Y-68825000D02*
X175484400Y-69027800D01*
X175484400Y-69027800D02*
X157315100Y-69027800D01*
X157315100Y-69027800D02*
X157112300Y-68825000D01*
X175687200Y-68825000D02*
X176162300Y-68825000D01*
X175212000Y-68825000D02*
X175687200Y-68825000D01*
X194737200Y-68825000D02*
X194536900Y-69025300D01*
X194536900Y-69025300D02*
X176362600Y-69025300D01*
X176362600Y-69025300D02*
X176162300Y-68825000D01*
X194737200Y-68825000D02*
X195212300Y-68825000D01*
X194262000Y-68825000D02*
X194737200Y-68825000D01*
X213787200Y-68825000D02*
X213532700Y-69079500D01*
X213532700Y-69079500D02*
X195466800Y-69079500D01*
X195466800Y-69079500D02*
X195212300Y-68825000D01*
X213787200Y-68825000D02*
X214262300Y-68825000D01*
X213312000Y-68825000D02*
X213787200Y-68825000D01*
X231411700Y-68825000D02*
X231157200Y-69079500D01*
X231157200Y-69079500D02*
X214516800Y-69079500D01*
X214516800Y-69079500D02*
X214262300Y-68825000D01*
X189500000Y-87875000D02*
X190450300Y-87875000D01*
X209025200Y-87875000D02*
X208804900Y-88095300D01*
X208804900Y-88095300D02*
X190670600Y-88095300D01*
X190670600Y-88095300D02*
X190450300Y-87875000D01*
X209025200Y-87875000D02*
X209500300Y-87875000D01*
X208550000Y-87875000D02*
X209025200Y-87875000D01*
X228075200Y-87875000D02*
X227854900Y-88095300D01*
X227854900Y-88095300D02*
X209720600Y-88095300D01*
X209720600Y-88095300D02*
X209500300Y-87875000D01*
X228075200Y-87875000D02*
X228550300Y-87875000D01*
X227600000Y-87875000D02*
X228075200Y-87875000D01*
X70437500Y-87875000D02*
X71387800Y-87875000D01*
X189500000Y-87875000D02*
X188549700Y-87875000D01*
X188549700Y-87875000D02*
X188348600Y-88076100D01*
X188348600Y-88076100D02*
X71588900Y-88076100D01*
X71588900Y-88076100D02*
X71387800Y-87875000D01*
X69962400Y-87875000D02*
X70437500Y-87875000D01*
X69962400Y-87875000D02*
X69487200Y-87875000D01*
X22812500Y-87875000D02*
X23762800Y-87875000D01*
X47100200Y-87875000D02*
X46879900Y-88095300D01*
X46879900Y-88095300D02*
X23983100Y-88095300D01*
X23983100Y-88095300D02*
X23762800Y-87875000D01*
X47100200Y-87875000D02*
X47575300Y-87875000D01*
X46625000Y-87875000D02*
X47100200Y-87875000D01*
X69487200Y-87875000D02*
X69266900Y-88095300D01*
X69266900Y-88095300D02*
X47795600Y-88095300D01*
X47795600Y-88095300D02*
X47575300Y-87875000D01*
X294750200Y-87875000D02*
X294529900Y-88095300D01*
X294529900Y-88095300D02*
X292115400Y-88095300D01*
X292115400Y-88095300D02*
X276395600Y-88095300D01*
X276395600Y-88095300D02*
X276175300Y-87875000D01*
X247125200Y-87875000D02*
X246904900Y-88095300D01*
X246904900Y-88095300D02*
X228770600Y-88095300D01*
X228770600Y-88095300D02*
X228550300Y-87875000D01*
X247125200Y-87875000D02*
X247600300Y-87875000D01*
X246650000Y-87875000D02*
X247125200Y-87875000D01*
X275700200Y-87875000D02*
X275494100Y-88081100D01*
X275494100Y-88081100D02*
X247806400Y-88081100D01*
X247806400Y-88081100D02*
X247600300Y-87875000D01*
X275700200Y-87875000D02*
X276175300Y-87875000D01*
X275225000Y-87875000D02*
X275700200Y-87875000D01*
X294750200Y-87875000D02*
X295225300Y-87875000D01*
X294275000Y-87875000D02*
X294750200Y-87875000D01*
X313325000Y-87875000D02*
X312374700Y-87875000D01*
X312374700Y-87875000D02*
X312154400Y-88095300D01*
X312154400Y-88095300D02*
X295445600Y-88095300D01*
X295445600Y-88095300D02*
X295225300Y-87875000D01*
X18050000Y-8375000D02*
X18050000Y-7574700D01*
X15367000Y-4445000D02*
X15367000Y-6045300D01*
X18050000Y-7574700D02*
X16896400Y-7574700D01*
X16896400Y-7574700D02*
X15367000Y-6045300D01*
X37100000Y-8375000D02*
X37100000Y-7574700D01*
X34417000Y-4445000D02*
X34417000Y-6045300D01*
X37100000Y-7574700D02*
X35946400Y-7574700D01*
X35946400Y-7574700D02*
X34417000Y-6045300D01*
X56150000Y-8375000D02*
X56150000Y-7574700D01*
X53467000Y-4445000D02*
X53467000Y-6045300D01*
X56150000Y-7574700D02*
X54996400Y-7574700D01*
X54996400Y-7574700D02*
X53467000Y-6045300D01*
X75200000Y-8375000D02*
X75200000Y-7574700D01*
X72517000Y-4445000D02*
X72517000Y-6045300D01*
X75200000Y-7574700D02*
X74046400Y-7574700D01*
X74046400Y-7574700D02*
X72517000Y-6045300D01*
X94250000Y-8375000D02*
X94250000Y-7574700D01*
X91567000Y-4445000D02*
X91567000Y-6045300D01*
X94250000Y-7574700D02*
X93096400Y-7574700D01*
X93096400Y-7574700D02*
X91567000Y-6045300D01*
X113300000Y-8375000D02*
X113300000Y-7574700D01*
X110617000Y-4445000D02*
X110617000Y-6045300D01*
X113300000Y-7574700D02*
X112146400Y-7574700D01*
X112146400Y-7574700D02*
X110617000Y-6045300D01*
X129667000Y-4445000D02*
X129667000Y-6045300D01*
X132350000Y-8375000D02*
X132350000Y-7574700D01*
X132350000Y-7574700D02*
X130820600Y-6045300D01*
X130820600Y-6045300D02*
X129667000Y-6045300D01*
X151400000Y-8375000D02*
X151400000Y-7574700D01*
X148717000Y-4445000D02*
X148717000Y-6045300D01*
X151400000Y-7574700D02*
X150246400Y-7574700D01*
X150246400Y-7574700D02*
X148717000Y-6045300D01*
X170450000Y-8375000D02*
X170450000Y-7574700D01*
X167767000Y-4445000D02*
X167767000Y-6045300D01*
X170450000Y-7574700D02*
X169296400Y-7574700D01*
X169296400Y-7574700D02*
X167767000Y-6045300D01*
X189500000Y-8375000D02*
X189500000Y-7574700D01*
X186817000Y-4445000D02*
X186817000Y-6045300D01*
X189500000Y-7574700D02*
X188346400Y-7574700D01*
X188346400Y-7574700D02*
X186817000Y-6045300D01*
X208550000Y-8375000D02*
X208550000Y-7574700D01*
X205867000Y-4445000D02*
X205867000Y-6045300D01*
X208550000Y-7574700D02*
X207396400Y-7574700D01*
X207396400Y-7574700D02*
X205867000Y-6045300D01*
X224917000Y-4445000D02*
X224917000Y-6045300D01*
X227600000Y-8375000D02*
X227600000Y-7574700D01*
X227600000Y-7574700D02*
X226070600Y-6045300D01*
X226070600Y-6045300D02*
X224917000Y-6045300D01*
X246650000Y-8375000D02*
X246650000Y-7574700D01*
X243967000Y-4445000D02*
X243967000Y-6045300D01*
X246650000Y-7574700D02*
X245496400Y-7574700D01*
X245496400Y-7574700D02*
X243967000Y-6045300D01*
X265700000Y-8375000D02*
X265700000Y-7574700D01*
X263017000Y-4445000D02*
X263017000Y-6045300D01*
X265700000Y-7574700D02*
X264546400Y-7574700D01*
X264546400Y-7574700D02*
X263017000Y-6045300D01*
X282067000Y-4445000D02*
X282067000Y-6045300D01*
X284750000Y-8375000D02*
X283463400Y-8375000D01*
X282067000Y-6045300D02*
X282719800Y-6045300D01*
X282719800Y-6045300D02*
X283463400Y-6788900D01*
X313325000Y-8375000D02*
X313325000Y-7574700D01*
X310642000Y-4445000D02*
X310642000Y-6045300D01*
X313325000Y-7574700D02*
X312171400Y-7574700D01*
X312171400Y-7574700D02*
X310642000Y-6045300D01*
X20129500Y-23495000D02*
X20129500Y-25095300D01*
X27575000Y-27425000D02*
X27575000Y-26624700D01*
X27575000Y-26624700D02*
X21658900Y-26624700D01*
X21658900Y-26624700D02*
X20129500Y-25095300D01*
X46625000Y-27425000D02*
X46625000Y-26624700D01*
X43942000Y-23495000D02*
X43942000Y-25095300D01*
X46625000Y-26624700D02*
X45471400Y-26624700D01*
X45471400Y-26624700D02*
X43942000Y-25095300D01*
X65675000Y-27425000D02*
X65675000Y-26624700D01*
X62992000Y-23495000D02*
X62992000Y-25095300D01*
X65675000Y-26624700D02*
X64521400Y-26624700D01*
X64521400Y-26624700D02*
X62992000Y-25095300D01*
X84725000Y-27425000D02*
X84725000Y-26624700D01*
X82042000Y-23495000D02*
X82042000Y-25095300D01*
X84725000Y-26624700D02*
X83571400Y-26624700D01*
X83571400Y-26624700D02*
X82042000Y-25095300D01*
X103775000Y-27425000D02*
X103775000Y-26624700D01*
X101092000Y-23495000D02*
X101092000Y-25095300D01*
X103775000Y-26624700D02*
X102621400Y-26624700D01*
X102621400Y-26624700D02*
X101092000Y-25095300D01*
X122825000Y-27425000D02*
X122825000Y-26624700D01*
X120142000Y-23495000D02*
X120142000Y-25095300D01*
X122825000Y-26624700D02*
X121671400Y-26624700D01*
X121671400Y-26624700D02*
X120142000Y-25095300D01*
X141875000Y-27425000D02*
X141875000Y-26624700D01*
X139192000Y-23495000D02*
X139192000Y-25095300D01*
X141875000Y-26624700D02*
X140721400Y-26624700D01*
X140721400Y-26624700D02*
X139192000Y-25095300D01*
X160925000Y-27425000D02*
X160925000Y-26624700D01*
X158242000Y-23495000D02*
X158242000Y-25095300D01*
X160925000Y-26624700D02*
X159771400Y-26624700D01*
X159771400Y-26624700D02*
X158242000Y-25095300D01*
X179975000Y-27425000D02*
X179975000Y-26624700D01*
X177292000Y-23495000D02*
X177292000Y-25095300D01*
X179975000Y-26624700D02*
X178821400Y-26624700D01*
X178821400Y-26624700D02*
X177292000Y-25095300D01*
X199025000Y-27425000D02*
X199025000Y-26624700D01*
X196342000Y-23495000D02*
X196342000Y-25095300D01*
X199025000Y-26624700D02*
X197871400Y-26624700D01*
X197871400Y-26624700D02*
X196342000Y-25095300D01*
X218075000Y-27425000D02*
X218075000Y-26624700D01*
X215392000Y-23495000D02*
X215392000Y-25095300D01*
X218075000Y-26624700D02*
X216921400Y-26624700D01*
X216921400Y-26624700D02*
X215392000Y-25095300D01*
X237125000Y-27425000D02*
X237125000Y-26624700D01*
X234442000Y-23495000D02*
X234442000Y-25095300D01*
X237125000Y-26624700D02*
X235971400Y-26624700D01*
X235971400Y-26624700D02*
X234442000Y-25095300D01*
X256175000Y-27425000D02*
X256175000Y-26624700D01*
X253492000Y-23495000D02*
X253492000Y-25095300D01*
X256175000Y-26624700D02*
X255021400Y-26624700D01*
X255021400Y-26624700D02*
X253492000Y-25095300D01*
X277304000Y-23495000D02*
X277304000Y-25095300D01*
X284750000Y-27425000D02*
X284750000Y-26624700D01*
X284750000Y-26624700D02*
X278833400Y-26624700D01*
X278833400Y-26624700D02*
X277304000Y-25095300D01*
X313325000Y-27425000D02*
X313325000Y-26624700D01*
X310642000Y-23495000D02*
X310642000Y-25095300D01*
X313325000Y-26624700D02*
X312171400Y-26624700D01*
X312171400Y-26624700D02*
X310642000Y-25095300D01*
X22510800Y-42545000D02*
X22510800Y-44145300D01*
X32337500Y-46475000D02*
X24840500Y-46475000D01*
X24840500Y-46475000D02*
X22510800Y-44145300D01*
X48704500Y-42545000D02*
X48704500Y-44145300D01*
X51387500Y-46475000D02*
X51387500Y-45674700D01*
X51387500Y-45674700D02*
X49858100Y-44145300D01*
X49858100Y-44145300D02*
X48704500Y-44145300D01*
X70437500Y-46475000D02*
X70437500Y-45674700D01*
X67754500Y-42545000D02*
X67754500Y-44145300D01*
X70437500Y-45674700D02*
X69283900Y-45674700D01*
X69283900Y-45674700D02*
X67754500Y-44145300D01*
X89487500Y-46475000D02*
X89487500Y-45674700D01*
X86804500Y-42545000D02*
X86804500Y-44145300D01*
X89487500Y-45674700D02*
X88333900Y-45674700D01*
X88333900Y-45674700D02*
X86804500Y-44145300D01*
X108538000Y-46475000D02*
X108538000Y-45674700D01*
X105854000Y-42545000D02*
X105854000Y-44145300D01*
X108538000Y-45674700D02*
X107383400Y-45674700D01*
X107383400Y-45674700D02*
X105854000Y-44145300D01*
X127588000Y-46475000D02*
X127588000Y-45674700D01*
X124904000Y-42545000D02*
X124904000Y-44145300D01*
X127588000Y-45674700D02*
X126433400Y-45674700D01*
X126433400Y-45674700D02*
X124904000Y-44145300D01*
X146638000Y-46475000D02*
X146638000Y-45674700D01*
X143954000Y-42545000D02*
X143954000Y-44145300D01*
X146638000Y-45674700D02*
X145483400Y-45674700D01*
X145483400Y-45674700D02*
X143954000Y-44145300D01*
X165688000Y-46475000D02*
X165688000Y-45674700D01*
X163004000Y-42545000D02*
X163004000Y-44145300D01*
X165688000Y-45674700D02*
X164533400Y-45674700D01*
X164533400Y-45674700D02*
X163004000Y-44145300D01*
X182054000Y-42545000D02*
X182054000Y-44145300D01*
X184738000Y-46475000D02*
X184738000Y-45674700D01*
X184738000Y-45674700D02*
X183208600Y-44145300D01*
X183208600Y-44145300D02*
X182054000Y-44145300D01*
X203788000Y-46475000D02*
X203788000Y-45674700D01*
X201104000Y-42545000D02*
X201104000Y-44145300D01*
X203788000Y-45674700D02*
X202633400Y-45674700D01*
X202633400Y-45674700D02*
X201104000Y-44145300D01*
X222838000Y-46475000D02*
X222838000Y-45674700D01*
X220154000Y-42545000D02*
X220154000Y-44145300D01*
X222838000Y-45674700D02*
X221683400Y-45674700D01*
X221683400Y-45674700D02*
X220154000Y-44145300D01*
X241888000Y-46475000D02*
X241888000Y-45674700D01*
X239204000Y-42545000D02*
X239204000Y-44145300D01*
X241888000Y-45674700D02*
X240733400Y-45674700D01*
X240733400Y-45674700D02*
X239204000Y-44145300D01*
X270161000Y-42545000D02*
X270161000Y-44145300D01*
X284750000Y-46475000D02*
X272490700Y-46475000D01*
X272490700Y-46475000D02*
X270161000Y-44145300D01*
X313325000Y-46475000D02*
X313325000Y-45674700D01*
X310642000Y-42545000D02*
X310642000Y-44145300D01*
X313325000Y-45674700D02*
X312171400Y-45674700D01*
X312171400Y-45674700D02*
X310642000Y-44145300D01*
X41862500Y-65525000D02*
X29602900Y-65525000D01*
X29602900Y-65525000D02*
X27273200Y-63195300D01*
X27273200Y-61595000D02*
X27273200Y-63195300D01*
X58229500Y-63195300D02*
X58229500Y-63630800D01*
X58229500Y-63630800D02*
X59323400Y-64724700D01*
X59323400Y-64724700D02*
X60912500Y-64724700D01*
X60912500Y-65525000D02*
X60912500Y-64724700D01*
X58229500Y-61595000D02*
X58229500Y-63195300D01*
X77279500Y-63195300D02*
X77279500Y-63421400D01*
X77279500Y-63421400D02*
X78582800Y-64724700D01*
X78582800Y-64724700D02*
X79962500Y-64724700D01*
X79962500Y-65525000D02*
X79962500Y-64724700D01*
X77279500Y-61595000D02*
X77279500Y-63195300D01*
X96329500Y-63195300D02*
X96329500Y-63741500D01*
X96329500Y-63741500D02*
X97312700Y-64724700D01*
X97312700Y-64724700D02*
X99012500Y-64724700D01*
X99012500Y-65525000D02*
X99012500Y-64724700D01*
X96329500Y-61595000D02*
X96329500Y-63195300D01*
X118062000Y-65525000D02*
X118062000Y-64724700D01*
X115380000Y-61595000D02*
X115380000Y-63195300D01*
X118062000Y-64724700D02*
X116909400Y-64724700D01*
X116909400Y-64724700D02*
X115380000Y-63195300D01*
X137112000Y-65525000D02*
X137112000Y-64724700D01*
X134430000Y-61595000D02*
X134430000Y-63195300D01*
X137112000Y-64724700D02*
X135959400Y-64724700D01*
X135959400Y-64724700D02*
X134430000Y-63195300D01*
X156162000Y-65525000D02*
X156162000Y-64724700D01*
X153480000Y-61595000D02*
X153480000Y-63195300D01*
X156162000Y-64724700D02*
X155009400Y-64724700D01*
X155009400Y-64724700D02*
X153480000Y-63195300D01*
X172530000Y-63195300D02*
X174059400Y-64724700D01*
X174059400Y-64724700D02*
X175212000Y-64724700D01*
X175212000Y-65525000D02*
X175212000Y-64724700D01*
X172530000Y-61595000D02*
X172530000Y-63195300D01*
X194262000Y-65525000D02*
X194262000Y-64724700D01*
X191580000Y-61595000D02*
X191580000Y-63195300D01*
X194262000Y-64724700D02*
X193109400Y-64724700D01*
X193109400Y-64724700D02*
X191580000Y-63195300D01*
X213312000Y-65525000D02*
X213312000Y-64724700D01*
X210630000Y-61595000D02*
X210630000Y-63195300D01*
X213312000Y-64724700D02*
X212159400Y-64724700D01*
X212159400Y-64724700D02*
X210630000Y-63195300D01*
X232362000Y-65525000D02*
X232362000Y-64724700D01*
X229680000Y-61595000D02*
X229680000Y-63195300D01*
X232362000Y-64724700D02*
X231209400Y-64724700D01*
X231209400Y-64724700D02*
X229680000Y-63195300D01*
X255873000Y-61595000D02*
X255873000Y-63195300D01*
X265700000Y-65525000D02*
X265700000Y-64724700D01*
X265700000Y-64724700D02*
X257402400Y-64724700D01*
X257402400Y-64724700D02*
X255873000Y-63195300D01*
X294275000Y-65525000D02*
X294275000Y-64724700D01*
X291592000Y-61595000D02*
X291592000Y-63195300D01*
X294275000Y-64724700D02*
X293121400Y-64724700D01*
X293121400Y-64724700D02*
X291592000Y-63195300D01*
X313325000Y-65525000D02*
X313325000Y-64724700D01*
X310642000Y-61595000D02*
X310642000Y-63195300D01*
X313325000Y-64724700D02*
X312171400Y-64724700D01*
X312171400Y-64724700D02*
X310642000Y-63195300D01*
X17748200Y-80645000D02*
X17748200Y-82245300D01*
X22812500Y-84575000D02*
X22812500Y-83774700D01*
X22812500Y-83774700D02*
X19277600Y-83774700D01*
X19277600Y-83774700D02*
X17748200Y-82245300D01*
X41560800Y-80645000D02*
X41560800Y-82245300D01*
X46625000Y-84575000D02*
X46625000Y-83774700D01*
X46625000Y-83774700D02*
X43090200Y-83774700D01*
X43090200Y-83774700D02*
X41560800Y-82245300D01*
X65373200Y-80645000D02*
X65373200Y-82245300D01*
X70437500Y-84575000D02*
X70437500Y-83774700D01*
X70437500Y-83774700D02*
X66902600Y-83774700D01*
X66902600Y-83774700D02*
X65373200Y-82245300D01*
X136811000Y-80645000D02*
X136811000Y-82245300D01*
X189500000Y-84575000D02*
X139140700Y-84575000D01*
X139140700Y-84575000D02*
X136811000Y-82245300D01*
X208550000Y-84575000D02*
X208550000Y-83774700D01*
X205867000Y-80645000D02*
X205867000Y-82245300D01*
X208550000Y-83774700D02*
X207396400Y-83774700D01*
X207396400Y-83774700D02*
X205867000Y-82245300D01*
X227600000Y-84575000D02*
X227600000Y-83774700D01*
X224917000Y-80645000D02*
X224917000Y-82245300D01*
X227600000Y-83774700D02*
X226446400Y-83774700D01*
X226446400Y-83774700D02*
X224917000Y-82245300D01*
X246650000Y-84575000D02*
X246650000Y-83774700D01*
X243967000Y-80645000D02*
X243967000Y-82245300D01*
X246650000Y-83774700D02*
X245496400Y-83774700D01*
X245496400Y-83774700D02*
X243967000Y-82245300D01*
X275225000Y-84575000D02*
X275225000Y-83774700D01*
X272542000Y-80645000D02*
X272542000Y-82245300D01*
X275225000Y-83774700D02*
X274071400Y-83774700D01*
X274071400Y-83774700D02*
X272542000Y-82245300D01*
X294275000Y-84575000D02*
X294275000Y-83774700D01*
X291592000Y-80645000D02*
X291592000Y-82245300D01*
X294275000Y-83774700D02*
X293121400Y-83774700D01*
X293121400Y-83774700D02*
X291592000Y-82245300D01*
X313325000Y-84575000D02*
X313325000Y-83774700D01*
X310642000Y-80645000D02*
X310642000Y-82245300D01*
X313325000Y-83774700D02*
X312171400Y-83774700D01*
X312171400Y-83774700D02*
X310642000Y-82245300D01*
M02*
