G04 #@! TF.GenerationSoftware,KiCad,Pcbnew,(5.1.8-0-10_14)*
G04 #@! TF.CreationDate,2021-01-01T21:21:00+09:00*
G04 #@! TF.ProjectId,keyboard,6b657962-6f61-4726-942e-6b696361645f,rev?*
G04 #@! TF.SameCoordinates,Original*
G04 #@! TF.FileFunction,Legend,Top*
G04 #@! TF.FilePolarity,Positive*
%FSLAX46Y46*%
G04 Gerber Fmt 4.6, Leading zero omitted, Abs format (unit mm)*
G04 Created by KiCad (PCBNEW (5.1.8-0-10_14)) date 2021-01-01 21:21:00*
%MOMM*%
%LPD*%
G01*
G04 APERTURE LIST*
%ADD10C,0.120000*%
%ADD11C,0.150000*%
G04 APERTURE END LIST*
D10*
X290770000Y-470000D02*
X292100000Y-470000D01*
X290770000Y-1800000D02*
X290770000Y-470000D01*
X290770000Y-3070000D02*
X293430000Y-3070000D01*
X293430000Y-3070000D02*
X293430000Y-28530000D01*
X290770000Y-3070000D02*
X290770000Y-28530000D01*
X290770000Y-28530000D02*
X293430000Y-28530000D01*
X286960000Y-470000D02*
X288290000Y-470000D01*
X286960000Y-1800000D02*
X286960000Y-470000D01*
X286960000Y-3070000D02*
X289620000Y-3070000D01*
X289620000Y-3070000D02*
X289620000Y-28530000D01*
X286960000Y-3070000D02*
X286960000Y-28530000D01*
X286960000Y-28530000D02*
X289620000Y-28530000D01*
D11*
X291766666Y1077619D02*
X291766666Y363333D01*
X291719047Y220476D01*
X291623809Y125238D01*
X291480952Y77619D01*
X291385714Y77619D01*
X292195238Y982380D02*
X292242857Y1030000D01*
X292338095Y1077619D01*
X292576190Y1077619D01*
X292671428Y1030000D01*
X292719047Y982380D01*
X292766666Y887142D01*
X292766666Y791904D01*
X292719047Y649047D01*
X292147619Y77619D01*
X292766666Y77619D01*
X287956666Y1077619D02*
X287956666Y363333D01*
X287909047Y220476D01*
X287813809Y125238D01*
X287670952Y77619D01*
X287575714Y77619D01*
X288956666Y77619D02*
X288385238Y77619D01*
X288670952Y77619D02*
X288670952Y1077619D01*
X288575714Y934761D01*
X288480476Y839523D01*
X288385238Y791904D01*
M02*
