G04 #@! TF.GenerationSoftware,KiCad,Pcbnew,(5.1.8-0-10_14)*
G04 #@! TF.CreationDate,2021-01-01T21:21:00+09:00*
G04 #@! TF.ProjectId,keyboard,6b657962-6f61-4726-942e-6b696361645f,rev?*
G04 #@! TF.SameCoordinates,Original*
G04 #@! TF.FileFunction,Copper,L1,Top*
G04 #@! TF.FilePolarity,Positive*
%FSLAX46Y46*%
G04 Gerber Fmt 4.6, Leading zero omitted, Abs format (unit mm)*
G04 Created by KiCad (PCBNEW (5.1.8-0-10_14)) date 2021-01-01 21:21:00*
%MOMM*%
%LPD*%
G01*
G04 APERTURE LIST*
G04 #@! TA.AperFunction,ComponentPad*
%ADD10O,1.700000X1.700000*%
G04 #@! TD*
G04 #@! TA.AperFunction,ComponentPad*
%ADD11R,1.700000X1.700000*%
G04 #@! TD*
G04 #@! TA.AperFunction,ViaPad*
%ADD12C,0.800000*%
G04 #@! TD*
G04 #@! TA.AperFunction,Conductor*
%ADD13C,0.300000*%
G04 #@! TD*
G04 APERTURE END LIST*
D10*
X292100000Y-27200000D03*
X292100000Y-24660000D03*
X292100000Y-22120000D03*
X292100000Y-19580000D03*
X292100000Y-17040000D03*
X292100000Y-14500000D03*
X292100000Y-11960000D03*
X292100000Y-9420000D03*
X292100000Y-6880000D03*
X292100000Y-4340000D03*
D11*
X292100000Y-1800000D03*
D10*
X288290000Y-27200000D03*
X288290000Y-24660000D03*
X288290000Y-22120000D03*
X288290000Y-19580000D03*
X288290000Y-17040000D03*
X288290000Y-14500000D03*
X288290000Y-11960000D03*
X288290000Y-9420000D03*
X288290000Y-6880000D03*
X288290000Y-4340000D03*
D11*
X288290000Y-1800000D03*
D12*
X37717900Y-13959000D03*
X37717900Y-10025000D03*
X45681300Y-61223000D03*
X36509500Y-48982900D03*
X58183600Y-9730000D03*
X53644700Y-21761400D03*
X53345600Y-80664000D03*
X49557300Y-29249500D03*
X54594000Y-46979600D03*
X59614100Y-63954400D03*
X81516600Y-13759700D03*
X77662900Y-9880000D03*
X285290000Y-13759700D03*
X68912800Y-29249500D03*
X78476000Y-63447900D03*
X73553200Y-42953100D03*
X97576900Y-63927900D03*
X92884000Y-43228200D03*
X93352600Y-10622900D03*
X93352600Y-24184600D03*
X116615500Y-9979800D03*
X121494200Y-17040000D03*
X105886300Y-29249500D03*
X112435400Y-46942200D03*
X121333600Y-61223000D03*
X122966700Y-68291600D03*
X122966700Y-81334000D03*
X129297000Y-41655900D03*
X128225600Y-30112100D03*
X141197700Y-61191700D03*
X131914600Y-48994900D03*
X133278700Y-18481000D03*
X133278700Y-10025000D03*
X160677000Y-61191700D03*
X153589000Y-9730000D03*
X148187500Y-45085000D03*
X150211800Y-20755100D03*
X173877800Y-63451700D03*
X172127000Y-21720400D03*
X173062400Y-9880000D03*
X169114000Y-41655900D03*
X164318200Y-29249500D03*
X189022500Y-22519100D03*
X192541700Y-10004200D03*
X188169300Y-48749300D03*
X189022500Y-41625700D03*
X183797500Y-28333600D03*
X195711500Y-79448700D03*
X195711500Y-63849800D03*
X219500100Y-3256600D03*
X212751500Y-80664000D03*
X203236700Y-43701500D03*
X207840800Y-49020900D03*
X210004600Y-10025000D03*
X214182800Y-64135000D03*
X204319500Y-24434700D03*
X231500200Y-9186200D03*
X226236400Y-46935600D03*
X232230800Y-80664000D03*
X228306800Y-22405400D03*
X242427900Y-45085000D03*
X248994400Y-9880000D03*
X240784600Y-22769200D03*
X248748000Y-73487100D03*
X240784600Y-64135000D03*
X268527400Y-8864700D03*
X264674800Y-22769200D03*
X278218100Y-81183100D03*
X278218100Y-65987200D03*
X296528400Y-80695200D03*
X296528400Y-48748000D03*
X296528400Y-21761400D03*
X295657500Y-64462400D03*
X293067300Y-68825000D03*
X292115400Y-88095300D03*
X283463400Y-6788900D03*
X283463400Y-8375000D03*
D13*
X37717900Y-10025000D02*
X37717900Y-13959000D01*
X36509500Y-48982900D02*
X36509500Y-52051200D01*
X36509500Y-52051200D02*
X45681300Y-61223000D01*
X53644700Y-21761400D02*
X58183600Y-17222500D01*
X58183600Y-17222500D02*
X58183600Y-9730000D01*
X53345600Y-80664000D02*
X53345600Y-69063200D01*
X53345600Y-69063200D02*
X58454400Y-63954400D01*
X58454400Y-63954400D02*
X59614100Y-63954400D01*
X54594000Y-46979600D02*
X49557300Y-41942900D01*
X49557300Y-41942900D02*
X49557300Y-29249500D01*
X59614100Y-63954400D02*
X59614100Y-58052300D01*
X59614100Y-58052300D02*
X54594000Y-53032200D01*
X54594000Y-53032200D02*
X54594000Y-46979600D01*
X77662900Y-9880000D02*
X81516600Y-13733700D01*
X81516600Y-13733700D02*
X81516600Y-13759700D01*
X285290000Y-13759700D02*
X287089700Y-11960000D01*
X288290000Y-11960000D02*
X287089700Y-11960000D01*
X68912800Y-29249500D02*
X68912800Y-38312700D01*
X68912800Y-38312700D02*
X73553200Y-42953100D01*
X73553200Y-42953100D02*
X73553200Y-58525100D01*
X73553200Y-58525100D02*
X78476000Y-63447900D01*
X92884000Y-43228200D02*
X92884000Y-47418300D01*
X92884000Y-47418300D02*
X97576900Y-52111200D01*
X97576900Y-52111200D02*
X97576900Y-63927900D01*
X93352600Y-24184600D02*
X93352600Y-26948200D01*
X93352600Y-26948200D02*
X92884000Y-27416800D01*
X92884000Y-27416800D02*
X92884000Y-43228200D01*
X93352600Y-10622900D02*
X93352600Y-24184600D01*
X116615500Y-9979800D02*
X121494100Y-14858400D01*
X121494100Y-14858400D02*
X121494100Y-17040000D01*
X121494100Y-17040000D02*
X121494200Y-17040000D01*
X112435400Y-46942200D02*
X105886300Y-40393100D01*
X105886300Y-40393100D02*
X105886300Y-29249500D01*
X121333600Y-61223000D02*
X112435400Y-52324800D01*
X112435400Y-52324800D02*
X112435400Y-46942200D01*
X122966700Y-68291600D02*
X122966700Y-81334000D01*
X128225600Y-30112100D02*
X128225600Y-40584500D01*
X128225600Y-40584500D02*
X129297000Y-41655900D01*
X131914600Y-48994900D02*
X141197700Y-58278000D01*
X141197700Y-58278000D02*
X141197700Y-61191700D01*
X133278700Y-10025000D02*
X133278700Y-18481000D01*
X148639700Y-45085000D02*
X148639700Y-49154400D01*
X148639700Y-49154400D02*
X160677000Y-61191700D01*
X150211800Y-20755100D02*
X150464300Y-21007600D01*
X150464300Y-21007600D02*
X150464300Y-26986500D01*
X150464300Y-26986500D02*
X148639700Y-28811100D01*
X148639700Y-28811100D02*
X148639700Y-45085000D01*
X148639700Y-45085000D02*
X148187500Y-45085000D01*
X153589000Y-9730000D02*
X153589000Y-17377900D01*
X153589000Y-17377900D02*
X150211800Y-20755100D01*
X169114000Y-41655900D02*
X169114000Y-58687900D01*
X169114000Y-58687900D02*
X173877800Y-63451700D01*
X173062400Y-9880000D02*
X173062400Y-20785000D01*
X173062400Y-20785000D02*
X172127000Y-21720400D01*
X164318200Y-29249500D02*
X164318200Y-36860100D01*
X164318200Y-36860100D02*
X169114000Y-41655900D01*
X192541700Y-10004200D02*
X189022500Y-13523400D01*
X189022500Y-13523400D02*
X189022500Y-22519100D01*
X188169300Y-48749300D02*
X195711500Y-56291500D01*
X195711500Y-56291500D02*
X195711500Y-63849800D01*
X183797500Y-28333600D02*
X183797500Y-36400700D01*
X183797500Y-36400700D02*
X189022500Y-41625700D01*
X195711500Y-79448700D02*
X195711500Y-63849800D01*
X290899700Y-1800000D02*
X289699400Y-3000300D01*
X289699400Y-3000300D02*
X283099200Y-3000300D01*
X283099200Y-3000300D02*
X282165300Y-2066400D01*
X282165300Y-2066400D02*
X220690300Y-2066400D01*
X220690300Y-2066400D02*
X219500100Y-3256600D01*
X292100000Y-1800000D02*
X290899700Y-1800000D01*
X214182800Y-64135000D02*
X212751500Y-65566300D01*
X212751500Y-65566300D02*
X212751500Y-80664000D01*
X207840800Y-49020900D02*
X214182800Y-55362900D01*
X214182800Y-55362900D02*
X214182800Y-64135000D01*
X204319500Y-24434700D02*
X203236700Y-25517500D01*
X203236700Y-25517500D02*
X203236700Y-43701500D01*
X210004600Y-10025000D02*
X210004600Y-18749600D01*
X210004600Y-18749600D02*
X204319500Y-24434700D01*
X292100000Y-4340000D02*
X290899700Y-4340000D01*
X231500200Y-9186200D02*
X231500200Y-7163200D01*
X231500200Y-7163200D02*
X236094100Y-2569300D01*
X236094100Y-2569300D02*
X280615500Y-2569300D01*
X280615500Y-2569300D02*
X283656200Y-5610000D01*
X283656200Y-5610000D02*
X289629700Y-5610000D01*
X289629700Y-5610000D02*
X290899700Y-4340000D01*
X228306800Y-22405400D02*
X231500200Y-19212000D01*
X231500200Y-19212000D02*
X231500200Y-9186200D01*
X226236400Y-46935600D02*
X226236400Y-47334800D01*
X226236400Y-47334800D02*
X232230800Y-53329200D01*
X232230800Y-53329200D02*
X232230800Y-80664000D01*
X228306800Y-22405400D02*
X228306800Y-25344000D01*
X228306800Y-25344000D02*
X226236400Y-27414400D01*
X226236400Y-27414400D02*
X226236400Y-46935600D01*
X242427900Y-45085000D02*
X240784600Y-43441700D01*
X240784600Y-43441700D02*
X240784600Y-22769200D01*
X240784600Y-64135000D02*
X242427900Y-62491700D01*
X242427900Y-62491700D02*
X242427900Y-45085000D01*
X240784600Y-22769200D02*
X248994400Y-14559400D01*
X248994400Y-14559400D02*
X248994400Y-9880000D01*
X240784600Y-64135000D02*
X240784600Y-65523700D01*
X240784600Y-65523700D02*
X248748000Y-73487100D01*
X268527400Y-12724700D02*
X268527400Y-8864700D01*
X268527400Y-12724700D02*
X278606500Y-12724700D01*
X264674800Y-22769200D02*
X268527400Y-18916600D01*
X268527400Y-18916600D02*
X268527400Y-12724700D01*
X278606500Y-12724700D02*
X280571600Y-10759600D01*
X280571600Y-10759600D02*
X289560100Y-10759600D01*
X289560100Y-10759600D02*
X290899700Y-9420000D01*
X278606500Y-12724700D02*
X278606500Y-65598800D01*
X278606500Y-65598800D02*
X278218100Y-65987200D01*
X292100000Y-9420000D02*
X290899700Y-9420000D01*
X278218100Y-65987200D02*
X278218100Y-81183100D01*
X295657500Y-64462400D02*
X296528400Y-65333300D01*
X296528400Y-65333300D02*
X296528400Y-80695200D01*
X296528400Y-48748000D02*
X295657500Y-49618900D01*
X295657500Y-49618900D02*
X295657500Y-64462400D01*
X292100000Y-11960000D02*
X292100000Y-13160300D01*
X292100000Y-13160300D02*
X292475100Y-13160300D01*
X292475100Y-13160300D02*
X296528400Y-17213600D01*
X296528400Y-17213600D02*
X296528400Y-21761400D01*
X292100000Y-23320300D02*
X292473000Y-23320300D01*
X292473000Y-23320300D02*
X293358700Y-24206000D01*
X293358700Y-24206000D02*
X293358700Y-68533600D01*
X293358700Y-68533600D02*
X293067300Y-68825000D01*
X292100000Y-22120000D02*
X292100000Y-23320300D01*
X292115400Y-88095300D02*
X292115400Y-62095900D01*
X292115400Y-62095900D02*
X290899300Y-60879800D01*
X290899300Y-60879800D02*
X290899300Y-26687900D01*
X290899300Y-26687900D02*
X291726900Y-25860300D01*
X291726900Y-25860300D02*
X292100000Y-25860300D01*
X292100000Y-24660000D02*
X292100000Y-25860300D01*
X283463400Y-6788900D02*
X283463400Y-8375000D01*
M02*
