G04 #@! TF.GenerationSoftware,KiCad,Pcbnew,(5.1.8-0-10_14)*
G04 #@! TF.CreationDate,2021-02-07T02:20:16+09:00*
G04 #@! TF.ProjectId,keyboard,6b657962-6f61-4726-942e-6b696361645f,rev?*
G04 #@! TF.SameCoordinates,Original*
G04 #@! TF.FileFunction,Soldermask,Top*
G04 #@! TF.FilePolarity,Negative*
%FSLAX46Y46*%
G04 Gerber Fmt 4.6, Leading zero omitted, Abs format (unit mm)*
G04 Created by KiCad (PCBNEW (5.1.8-0-10_14)) date 2021-02-07 02:20:16*
%MOMM*%
%LPD*%
G01*
G04 APERTURE LIST*
%ADD10R,1.700000X1.700000*%
%ADD11O,1.700000X1.700000*%
%ADD12C,1.750000*%
%ADD13C,3.000000*%
%ADD14C,3.987800*%
%ADD15C,3.048000*%
G04 APERTURE END LIST*
D10*
X29972000Y-16256000D03*
D11*
X27432000Y-16256000D03*
X24892000Y-16256000D03*
X22352000Y-16256000D03*
X19812000Y-16256000D03*
X17272000Y-16256000D03*
X14732000Y-16256000D03*
X12192000Y-16256000D03*
X9652000Y-16256000D03*
X7112000Y-16256000D03*
X4572000Y-16256000D03*
X2032000Y-16256000D03*
D10*
X40172000Y-36576000D03*
D11*
X37632000Y-36576000D03*
X35092000Y-36576000D03*
X32552000Y-36576000D03*
X30012000Y-36576000D03*
X27472000Y-36576000D03*
X24932000Y-36576000D03*
X22392000Y-36576000D03*
X19852000Y-36576000D03*
X17312000Y-36576000D03*
X14772000Y-36576000D03*
X12232000Y-36576000D03*
X9692000Y-36576000D03*
X7152000Y-36576000D03*
X4612000Y-36576000D03*
X2072000Y-36576000D03*
D12*
X309880000Y-85725000D03*
X299720000Y-85725000D03*
D13*
X300990000Y-83185000D03*
D14*
X304800000Y-85725000D03*
D13*
X307340000Y-80645000D03*
D12*
X290830000Y-85725000D03*
X280670000Y-85725000D03*
D13*
X281940000Y-83185000D03*
D14*
X285750000Y-85725000D03*
D13*
X288290000Y-80645000D03*
D12*
X271780000Y-85725000D03*
X261620000Y-85725000D03*
D13*
X262890000Y-83185000D03*
D14*
X266700000Y-85725000D03*
D13*
X269240000Y-80645000D03*
D12*
X243205000Y-85725000D03*
X233045000Y-85725000D03*
D13*
X234315000Y-83185000D03*
D14*
X238125000Y-85725000D03*
D13*
X240665000Y-80645000D03*
D12*
X224155000Y-85725000D03*
X213995000Y-85725000D03*
D13*
X215265000Y-83185000D03*
D14*
X219075000Y-85725000D03*
D13*
X221615000Y-80645000D03*
D12*
X205105000Y-85725000D03*
X194945000Y-85725000D03*
D13*
X196215000Y-83185000D03*
D14*
X200025000Y-85725000D03*
D13*
X202565000Y-80645000D03*
D14*
X80969100Y-93980000D03*
X180968900Y-93980000D03*
D15*
X80969100Y-78740000D03*
X180968900Y-78740000D03*
D12*
X136049000Y-85725000D03*
X125889000Y-85725000D03*
D13*
X127159000Y-83185000D03*
D14*
X130969000Y-85725000D03*
D13*
X133509000Y-80645000D03*
D12*
X64611200Y-85725000D03*
X54451200Y-85725000D03*
D13*
X55721200Y-83185000D03*
D14*
X59531200Y-85725000D03*
D13*
X62071200Y-80645000D03*
D12*
X40798800Y-85725000D03*
X30638800Y-85725000D03*
D13*
X31908800Y-83185000D03*
D14*
X35718800Y-85725000D03*
D13*
X38258800Y-80645000D03*
D12*
X16986200Y-85725000D03*
X6826200Y-85725000D03*
D13*
X8096200Y-83185000D03*
D14*
X11906200Y-85725000D03*
D13*
X14446200Y-80645000D03*
D12*
X309880000Y-66675000D03*
X299720000Y-66675000D03*
D13*
X300990000Y-64135000D03*
D14*
X304800000Y-66675000D03*
D13*
X307340000Y-61595000D03*
D12*
X290830000Y-66675000D03*
X280670000Y-66675000D03*
D13*
X281940000Y-64135000D03*
D14*
X285750000Y-66675000D03*
D13*
X288290000Y-61595000D03*
D12*
X255111000Y-66675000D03*
X244951000Y-66675000D03*
D13*
X246221000Y-64135000D03*
D14*
X250031000Y-66675000D03*
D13*
X252571000Y-61595000D03*
D12*
X228918000Y-66675000D03*
X218758000Y-66675000D03*
D13*
X220028000Y-64135000D03*
D14*
X223838000Y-66675000D03*
D13*
X226378000Y-61595000D03*
D12*
X209868000Y-66675000D03*
X199708000Y-66675000D03*
D13*
X200978000Y-64135000D03*
D14*
X204788000Y-66675000D03*
D13*
X207328000Y-61595000D03*
D12*
X190818000Y-66675000D03*
X180658000Y-66675000D03*
D13*
X181928000Y-64135000D03*
D14*
X185738000Y-66675000D03*
D13*
X188278000Y-61595000D03*
D12*
X171768000Y-66675000D03*
X161608000Y-66675000D03*
D13*
X162878000Y-64135000D03*
D14*
X166688000Y-66675000D03*
D13*
X169228000Y-61595000D03*
D12*
X152718000Y-66675000D03*
X142558000Y-66675000D03*
D13*
X143828000Y-64135000D03*
D14*
X147638000Y-66675000D03*
D13*
X150178000Y-61595000D03*
D12*
X133668000Y-66675000D03*
X123508000Y-66675000D03*
D13*
X124778000Y-64135000D03*
D14*
X128588000Y-66675000D03*
D13*
X131128000Y-61595000D03*
D12*
X114618000Y-66675000D03*
X104458000Y-66675000D03*
D13*
X105728000Y-64135000D03*
D14*
X109538000Y-66675000D03*
D13*
X112078000Y-61595000D03*
D12*
X95567500Y-66675000D03*
X85407500Y-66675000D03*
D13*
X86677500Y-64135000D03*
D14*
X90487500Y-66675000D03*
D13*
X93027500Y-61595000D03*
D12*
X76517500Y-66675000D03*
X66357500Y-66675000D03*
D13*
X67627500Y-64135000D03*
D14*
X71437500Y-66675000D03*
D13*
X73977500Y-61595000D03*
D12*
X57467500Y-66675000D03*
X47307500Y-66675000D03*
D13*
X48577500Y-64135000D03*
D14*
X52387500Y-66675000D03*
D13*
X54927500Y-61595000D03*
D14*
X9493200Y-74930000D03*
X33369200Y-74930000D03*
D15*
X9493200Y-59690000D03*
X33369200Y-59690000D03*
D12*
X26511200Y-66675000D03*
X16351200Y-66675000D03*
D13*
X17621200Y-64135000D03*
D14*
X21431200Y-66675000D03*
D13*
X23971200Y-61595000D03*
D12*
X309880000Y-47625000D03*
X299720000Y-47625000D03*
D13*
X300990000Y-45085000D03*
D14*
X304800000Y-47625000D03*
D13*
X307340000Y-42545000D03*
D14*
X252381000Y-55880000D03*
X276257000Y-55880000D03*
D15*
X252381000Y-40640000D03*
X276257000Y-40640000D03*
D12*
X269399000Y-47625000D03*
X259239000Y-47625000D03*
D13*
X260509000Y-45085000D03*
D14*
X264319000Y-47625000D03*
D13*
X266859000Y-42545000D03*
D12*
X238442000Y-47625000D03*
X228282000Y-47625000D03*
D13*
X229552000Y-45085000D03*
D14*
X233362000Y-47625000D03*
D13*
X235902000Y-42545000D03*
D12*
X219392000Y-47625000D03*
X209232000Y-47625000D03*
D13*
X210502000Y-45085000D03*
D14*
X214312000Y-47625000D03*
D13*
X216852000Y-42545000D03*
D12*
X200342000Y-47625000D03*
X190182000Y-47625000D03*
D13*
X191452000Y-45085000D03*
D14*
X195262000Y-47625000D03*
D13*
X197802000Y-42545000D03*
D12*
X181292000Y-47625000D03*
X171132000Y-47625000D03*
D13*
X172402000Y-45085000D03*
D14*
X176212000Y-47625000D03*
D13*
X178752000Y-42545000D03*
D12*
X162242000Y-47625000D03*
X152082000Y-47625000D03*
D13*
X153352000Y-45085000D03*
D14*
X157162000Y-47625000D03*
D13*
X159702000Y-42545000D03*
D12*
X143192000Y-47625000D03*
X133032000Y-47625000D03*
D13*
X134302000Y-45085000D03*
D14*
X138112000Y-47625000D03*
D13*
X140652000Y-42545000D03*
D12*
X124142000Y-47625000D03*
X113982000Y-47625000D03*
D13*
X115252000Y-45085000D03*
D14*
X119062000Y-47625000D03*
D13*
X121602000Y-42545000D03*
D12*
X105092000Y-47625000D03*
X94932000Y-47625000D03*
D13*
X96202000Y-45085000D03*
D14*
X100012000Y-47625000D03*
D13*
X102552000Y-42545000D03*
D12*
X86042500Y-47625000D03*
X75882500Y-47625000D03*
D13*
X77152500Y-45085000D03*
D14*
X80962500Y-47625000D03*
D13*
X83502500Y-42545000D03*
D12*
X66992500Y-47625000D03*
X56832500Y-47625000D03*
D13*
X58102500Y-45085000D03*
D14*
X61912500Y-47625000D03*
D13*
X64452500Y-42545000D03*
D12*
X47942500Y-47625000D03*
X37782500Y-47625000D03*
D13*
X39052500Y-45085000D03*
D14*
X42862500Y-47625000D03*
D13*
X45402500Y-42545000D03*
D12*
X21748800Y-47625000D03*
X11588800Y-47625000D03*
D13*
X12858800Y-45085000D03*
D14*
X16668800Y-47625000D03*
D13*
X19208800Y-42545000D03*
D12*
X309880000Y-28575000D03*
X299720000Y-28575000D03*
D13*
X300990000Y-26035000D03*
D14*
X304800000Y-28575000D03*
D13*
X307340000Y-23495000D03*
D12*
X276542000Y-28575000D03*
X266382000Y-28575000D03*
D13*
X267652000Y-26035000D03*
D14*
X271462000Y-28575000D03*
D13*
X274002000Y-23495000D03*
D12*
X252730000Y-28575000D03*
X242570000Y-28575000D03*
D13*
X243840000Y-26035000D03*
D14*
X247650000Y-28575000D03*
D13*
X250190000Y-23495000D03*
D12*
X233680000Y-28575000D03*
X223520000Y-28575000D03*
D13*
X224790000Y-26035000D03*
D14*
X228600000Y-28575000D03*
D13*
X231140000Y-23495000D03*
D12*
X214630000Y-28575000D03*
X204470000Y-28575000D03*
D13*
X205740000Y-26035000D03*
D14*
X209550000Y-28575000D03*
D13*
X212090000Y-23495000D03*
D12*
X195580000Y-28575000D03*
X185420000Y-28575000D03*
D13*
X186690000Y-26035000D03*
D14*
X190500000Y-28575000D03*
D13*
X193040000Y-23495000D03*
D12*
X176530000Y-28575000D03*
X166370000Y-28575000D03*
D13*
X167640000Y-26035000D03*
D14*
X171450000Y-28575000D03*
D13*
X173990000Y-23495000D03*
D12*
X157480000Y-28575000D03*
X147320000Y-28575000D03*
D13*
X148590000Y-26035000D03*
D14*
X152400000Y-28575000D03*
D13*
X154940000Y-23495000D03*
D12*
X138430000Y-28575000D03*
X128270000Y-28575000D03*
D13*
X129540000Y-26035000D03*
D14*
X133350000Y-28575000D03*
D13*
X135890000Y-23495000D03*
D12*
X119380000Y-28575000D03*
X109220000Y-28575000D03*
D13*
X110490000Y-26035000D03*
D14*
X114300000Y-28575000D03*
D13*
X116840000Y-23495000D03*
D12*
X100330000Y-28575000D03*
X90170000Y-28575000D03*
D13*
X91440000Y-26035000D03*
D14*
X95250000Y-28575000D03*
D13*
X97790000Y-23495000D03*
D12*
X81280000Y-28575000D03*
X71120000Y-28575000D03*
D13*
X72390000Y-26035000D03*
D14*
X76200000Y-28575000D03*
D13*
X78740000Y-23495000D03*
D12*
X62230000Y-28575000D03*
X52070000Y-28575000D03*
D13*
X53340000Y-26035000D03*
D14*
X57150000Y-28575000D03*
D13*
X59690000Y-23495000D03*
D12*
X43180000Y-28575000D03*
X33020000Y-28575000D03*
D13*
X34290000Y-26035000D03*
D14*
X38100000Y-28575000D03*
D13*
X40640000Y-23495000D03*
D12*
X19367500Y-28575000D03*
X9207500Y-28575000D03*
D13*
X10477500Y-26035000D03*
D14*
X14287500Y-28575000D03*
D13*
X16827500Y-23495000D03*
D12*
X309880000Y-9525000D03*
X299720000Y-9525000D03*
D13*
X300990000Y-6985000D03*
D14*
X304800000Y-9525000D03*
D13*
X307340000Y-4445000D03*
D12*
X281305000Y-9525000D03*
X271145000Y-9525000D03*
D13*
X272415000Y-6985000D03*
D14*
X276225000Y-9525000D03*
D13*
X278765000Y-4445000D03*
D12*
X262255000Y-9525000D03*
X252095000Y-9525000D03*
D13*
X253365000Y-6985000D03*
D14*
X257175000Y-9525000D03*
D13*
X259715000Y-4445000D03*
D12*
X243205000Y-9525000D03*
X233045000Y-9525000D03*
D13*
X234315000Y-6985000D03*
D14*
X238125000Y-9525000D03*
D13*
X240665000Y-4445000D03*
D12*
X224155000Y-9525000D03*
X213995000Y-9525000D03*
D13*
X215265000Y-6985000D03*
D14*
X219075000Y-9525000D03*
D13*
X221615000Y-4445000D03*
D12*
X205105000Y-9525000D03*
X194945000Y-9525000D03*
D13*
X196215000Y-6985000D03*
D14*
X200025000Y-9525000D03*
D13*
X202565000Y-4445000D03*
D12*
X186055000Y-9525000D03*
X175895000Y-9525000D03*
D13*
X177165000Y-6985000D03*
D14*
X180975000Y-9525000D03*
D13*
X183515000Y-4445000D03*
D12*
X167005000Y-9525000D03*
X156845000Y-9525000D03*
D13*
X158115000Y-6985000D03*
D14*
X161925000Y-9525000D03*
D13*
X164465000Y-4445000D03*
D12*
X147955000Y-9525000D03*
X137795000Y-9525000D03*
D13*
X139065000Y-6985000D03*
D14*
X142875000Y-9525000D03*
D13*
X145415000Y-4445000D03*
D12*
X128905000Y-9525000D03*
X118745000Y-9525000D03*
D13*
X120015000Y-6985000D03*
D14*
X123825000Y-9525000D03*
D13*
X126365000Y-4445000D03*
D12*
X109855000Y-9525000D03*
X99695000Y-9525000D03*
D13*
X100965000Y-6985000D03*
D14*
X104775000Y-9525000D03*
D13*
X107315000Y-4445000D03*
D12*
X90805000Y-9525000D03*
X80645000Y-9525000D03*
D13*
X81915000Y-6985000D03*
D14*
X85725000Y-9525000D03*
D13*
X88265000Y-4445000D03*
D12*
X71755000Y-9525000D03*
X61595000Y-9525000D03*
D13*
X62865000Y-6985000D03*
D14*
X66675000Y-9525000D03*
D13*
X69215000Y-4445000D03*
D12*
X52705000Y-9525000D03*
X42545000Y-9525000D03*
D13*
X43815000Y-6985000D03*
D14*
X47625000Y-9525000D03*
D13*
X50165000Y-4445000D03*
D12*
X33655000Y-9525000D03*
X23495000Y-9525000D03*
D13*
X24765000Y-6985000D03*
D14*
X28575000Y-9525000D03*
D13*
X31115000Y-4445000D03*
D12*
X14605000Y-9525000D03*
X4445000Y-9525000D03*
D13*
X5715000Y-6985000D03*
D14*
X9525000Y-9525000D03*
D13*
X12065000Y-4445000D03*
M02*
