G04 #@! TF.GenerationSoftware,KiCad,Pcbnew,(5.1.8-0-10_14)*
G04 #@! TF.CreationDate,2021-01-01T21:21:00+09:00*
G04 #@! TF.ProjectId,keyboard,6b657962-6f61-4726-942e-6b696361645f,rev?*
G04 #@! TF.SameCoordinates,Original*
G04 #@! TF.FileFunction,Soldermask,Bot*
G04 #@! TF.FilePolarity,Negative*
%FSLAX46Y46*%
G04 Gerber Fmt 4.6, Leading zero omitted, Abs format (unit mm)*
G04 Created by KiCad (PCBNEW (5.1.8-0-10_14)) date 2021-01-01 21:21:00*
%MOMM*%
%LPD*%
G01*
G04 APERTURE LIST*
%ADD10O,1.700000X1.700000*%
%ADD11R,1.700000X1.700000*%
%ADD12R,2.550000X2.500000*%
%ADD13C,1.750000*%
%ADD14C,3.000000*%
%ADD15C,3.987800*%
%ADD16C,3.048000*%
%ADD17R,1.200000X0.900000*%
G04 APERTURE END LIST*
D10*
X292100000Y-27200000D03*
X292100000Y-24660000D03*
X292100000Y-22120000D03*
X292100000Y-19580000D03*
X292100000Y-17040000D03*
X292100000Y-14500000D03*
X292100000Y-11960000D03*
X292100000Y-9420000D03*
X292100000Y-6880000D03*
X292100000Y-4340000D03*
D11*
X292100000Y-1800000D03*
D10*
X288290000Y-27200000D03*
X288290000Y-24660000D03*
X288290000Y-22120000D03*
X288290000Y-19580000D03*
X288290000Y-17040000D03*
X288290000Y-14500000D03*
X288290000Y-11960000D03*
X288290000Y-9420000D03*
X288290000Y-6880000D03*
X288290000Y-4340000D03*
D11*
X288290000Y-1800000D03*
D12*
X310642000Y-80645000D03*
X297715000Y-83185000D03*
D13*
X309880000Y-85725000D03*
X299720000Y-85725000D03*
D14*
X300990000Y-83185000D03*
D15*
X304800000Y-85725000D03*
D14*
X307340000Y-80645000D03*
D12*
X291592000Y-80645000D03*
X278665000Y-83185000D03*
D13*
X290830000Y-85725000D03*
X280670000Y-85725000D03*
D14*
X281940000Y-83185000D03*
D15*
X285750000Y-85725000D03*
D14*
X288290000Y-80645000D03*
D12*
X272542000Y-80645000D03*
X259615000Y-83185000D03*
D13*
X271780000Y-85725000D03*
X261620000Y-85725000D03*
D14*
X262890000Y-83185000D03*
D15*
X266700000Y-85725000D03*
D14*
X269240000Y-80645000D03*
D12*
X243967000Y-80645000D03*
X231040000Y-83185000D03*
D13*
X243205000Y-85725000D03*
X233045000Y-85725000D03*
D14*
X234315000Y-83185000D03*
D15*
X238125000Y-85725000D03*
D14*
X240665000Y-80645000D03*
D12*
X224917000Y-80645000D03*
X211990000Y-83185000D03*
D13*
X224155000Y-85725000D03*
X213995000Y-85725000D03*
D14*
X215265000Y-83185000D03*
D15*
X219075000Y-85725000D03*
D14*
X221615000Y-80645000D03*
D12*
X205867000Y-80645000D03*
X192940000Y-83185000D03*
D13*
X205105000Y-85725000D03*
X194945000Y-85725000D03*
D14*
X196215000Y-83185000D03*
D15*
X200025000Y-85725000D03*
D14*
X202565000Y-80645000D03*
D15*
X80969100Y-93980000D03*
X180968900Y-93980000D03*
D16*
X80969100Y-78740000D03*
X180968900Y-78740000D03*
D12*
X136811000Y-80645000D03*
X123884000Y-83185000D03*
D13*
X136049000Y-85725000D03*
X125889000Y-85725000D03*
D14*
X127159000Y-83185000D03*
D15*
X130969000Y-85725000D03*
D14*
X133509000Y-80645000D03*
D12*
X65373200Y-80645000D03*
X52446200Y-83185000D03*
D13*
X64611200Y-85725000D03*
X54451200Y-85725000D03*
D14*
X55721200Y-83185000D03*
D15*
X59531200Y-85725000D03*
D14*
X62071200Y-80645000D03*
D12*
X41560800Y-80645000D03*
X28633800Y-83185000D03*
D13*
X40798800Y-85725000D03*
X30638800Y-85725000D03*
D14*
X31908800Y-83185000D03*
D15*
X35718800Y-85725000D03*
D14*
X38258800Y-80645000D03*
D12*
X17748200Y-80645000D03*
X4821200Y-83185000D03*
D13*
X16986200Y-85725000D03*
X6826200Y-85725000D03*
D14*
X8096200Y-83185000D03*
D15*
X11906200Y-85725000D03*
D14*
X14446200Y-80645000D03*
D12*
X310642000Y-61595000D03*
X297715000Y-64135000D03*
D13*
X309880000Y-66675000D03*
X299720000Y-66675000D03*
D14*
X300990000Y-64135000D03*
D15*
X304800000Y-66675000D03*
D14*
X307340000Y-61595000D03*
D12*
X291592000Y-61595000D03*
X278665000Y-64135000D03*
D13*
X290830000Y-66675000D03*
X280670000Y-66675000D03*
D14*
X281940000Y-64135000D03*
D15*
X285750000Y-66675000D03*
D14*
X288290000Y-61595000D03*
D12*
X255873000Y-61595000D03*
X242946000Y-64135000D03*
D13*
X255111000Y-66675000D03*
X244951000Y-66675000D03*
D14*
X246221000Y-64135000D03*
D15*
X250031000Y-66675000D03*
D14*
X252571000Y-61595000D03*
D12*
X229680000Y-61595000D03*
X216753000Y-64135000D03*
D13*
X228918000Y-66675000D03*
X218758000Y-66675000D03*
D14*
X220028000Y-64135000D03*
D15*
X223838000Y-66675000D03*
D14*
X226378000Y-61595000D03*
D12*
X210630000Y-61595000D03*
X197703000Y-64135000D03*
D13*
X209868000Y-66675000D03*
X199708000Y-66675000D03*
D14*
X200978000Y-64135000D03*
D15*
X204788000Y-66675000D03*
D14*
X207328000Y-61595000D03*
D12*
X191580000Y-61595000D03*
X178653000Y-64135000D03*
D13*
X190818000Y-66675000D03*
X180658000Y-66675000D03*
D14*
X181928000Y-64135000D03*
D15*
X185738000Y-66675000D03*
D14*
X188278000Y-61595000D03*
D12*
X172530000Y-61595000D03*
X159603000Y-64135000D03*
D13*
X171768000Y-66675000D03*
X161608000Y-66675000D03*
D14*
X162878000Y-64135000D03*
D15*
X166688000Y-66675000D03*
D14*
X169228000Y-61595000D03*
D12*
X153480000Y-61595000D03*
X140553000Y-64135000D03*
D13*
X152718000Y-66675000D03*
X142558000Y-66675000D03*
D14*
X143828000Y-64135000D03*
D15*
X147638000Y-66675000D03*
D14*
X150178000Y-61595000D03*
D12*
X134430000Y-61595000D03*
X121503000Y-64135000D03*
D13*
X133668000Y-66675000D03*
X123508000Y-66675000D03*
D14*
X124778000Y-64135000D03*
D15*
X128588000Y-66675000D03*
D14*
X131128000Y-61595000D03*
D12*
X115380000Y-61595000D03*
X102453000Y-64135000D03*
D13*
X114618000Y-66675000D03*
X104458000Y-66675000D03*
D14*
X105728000Y-64135000D03*
D15*
X109538000Y-66675000D03*
D14*
X112078000Y-61595000D03*
D12*
X96329500Y-61595000D03*
X83402500Y-64135000D03*
D13*
X95567500Y-66675000D03*
X85407500Y-66675000D03*
D14*
X86677500Y-64135000D03*
D15*
X90487500Y-66675000D03*
D14*
X93027500Y-61595000D03*
D12*
X77279500Y-61595000D03*
X64352500Y-64135000D03*
D13*
X76517500Y-66675000D03*
X66357500Y-66675000D03*
D14*
X67627500Y-64135000D03*
D15*
X71437500Y-66675000D03*
D14*
X73977500Y-61595000D03*
D12*
X58229500Y-61595000D03*
X45302500Y-64135000D03*
D13*
X57467500Y-66675000D03*
X47307500Y-66675000D03*
D14*
X48577500Y-64135000D03*
D15*
X52387500Y-66675000D03*
D14*
X54927500Y-61595000D03*
D15*
X9493200Y-74930000D03*
X33369200Y-74930000D03*
D16*
X9493200Y-59690000D03*
X33369200Y-59690000D03*
D12*
X27273200Y-61595000D03*
X14346200Y-64135000D03*
D13*
X26511200Y-66675000D03*
X16351200Y-66675000D03*
D14*
X17621200Y-64135000D03*
D15*
X21431200Y-66675000D03*
D14*
X23971200Y-61595000D03*
D12*
X310642000Y-42545000D03*
X297715000Y-45085000D03*
D13*
X309880000Y-47625000D03*
X299720000Y-47625000D03*
D14*
X300990000Y-45085000D03*
D15*
X304800000Y-47625000D03*
D14*
X307340000Y-42545000D03*
D15*
X252381000Y-55880000D03*
X276257000Y-55880000D03*
D16*
X252381000Y-40640000D03*
X276257000Y-40640000D03*
D12*
X270161000Y-42545000D03*
X257234000Y-45085000D03*
D13*
X269399000Y-47625000D03*
X259239000Y-47625000D03*
D14*
X260509000Y-45085000D03*
D15*
X264319000Y-47625000D03*
D14*
X266859000Y-42545000D03*
D12*
X239204000Y-42545000D03*
X226277000Y-45085000D03*
D13*
X238442000Y-47625000D03*
X228282000Y-47625000D03*
D14*
X229552000Y-45085000D03*
D15*
X233362000Y-47625000D03*
D14*
X235902000Y-42545000D03*
D12*
X220154000Y-42545000D03*
X207227000Y-45085000D03*
D13*
X219392000Y-47625000D03*
X209232000Y-47625000D03*
D14*
X210502000Y-45085000D03*
D15*
X214312000Y-47625000D03*
D14*
X216852000Y-42545000D03*
D12*
X201104000Y-42545000D03*
X188177000Y-45085000D03*
D13*
X200342000Y-47625000D03*
X190182000Y-47625000D03*
D14*
X191452000Y-45085000D03*
D15*
X195262000Y-47625000D03*
D14*
X197802000Y-42545000D03*
D12*
X182054000Y-42545000D03*
X169127000Y-45085000D03*
D13*
X181292000Y-47625000D03*
X171132000Y-47625000D03*
D14*
X172402000Y-45085000D03*
D15*
X176212000Y-47625000D03*
D14*
X178752000Y-42545000D03*
D12*
X163004000Y-42545000D03*
X150077000Y-45085000D03*
D13*
X162242000Y-47625000D03*
X152082000Y-47625000D03*
D14*
X153352000Y-45085000D03*
D15*
X157162000Y-47625000D03*
D14*
X159702000Y-42545000D03*
D12*
X143954000Y-42545000D03*
X131027000Y-45085000D03*
D13*
X143192000Y-47625000D03*
X133032000Y-47625000D03*
D14*
X134302000Y-45085000D03*
D15*
X138112000Y-47625000D03*
D14*
X140652000Y-42545000D03*
D12*
X124904000Y-42545000D03*
X111977000Y-45085000D03*
D13*
X124142000Y-47625000D03*
X113982000Y-47625000D03*
D14*
X115252000Y-45085000D03*
D15*
X119062000Y-47625000D03*
D14*
X121602000Y-42545000D03*
D12*
X105854000Y-42545000D03*
X92927000Y-45085000D03*
D13*
X105092000Y-47625000D03*
X94932000Y-47625000D03*
D14*
X96202000Y-45085000D03*
D15*
X100012000Y-47625000D03*
D14*
X102552000Y-42545000D03*
D12*
X86804500Y-42545000D03*
X73877500Y-45085000D03*
D13*
X86042500Y-47625000D03*
X75882500Y-47625000D03*
D14*
X77152500Y-45085000D03*
D15*
X80962500Y-47625000D03*
D14*
X83502500Y-42545000D03*
D12*
X67754500Y-42545000D03*
X54827500Y-45085000D03*
D13*
X66992500Y-47625000D03*
X56832500Y-47625000D03*
D14*
X58102500Y-45085000D03*
D15*
X61912500Y-47625000D03*
D14*
X64452500Y-42545000D03*
D12*
X48704500Y-42545000D03*
X35777500Y-45085000D03*
D13*
X47942500Y-47625000D03*
X37782500Y-47625000D03*
D14*
X39052500Y-45085000D03*
D15*
X42862500Y-47625000D03*
D14*
X45402500Y-42545000D03*
D12*
X22510800Y-42545000D03*
X9583800Y-45085000D03*
D13*
X21748800Y-47625000D03*
X11588800Y-47625000D03*
D14*
X12858800Y-45085000D03*
D15*
X16668800Y-47625000D03*
D14*
X19208800Y-42545000D03*
D12*
X310642000Y-23495000D03*
X297715000Y-26035000D03*
D13*
X309880000Y-28575000D03*
X299720000Y-28575000D03*
D14*
X300990000Y-26035000D03*
D15*
X304800000Y-28575000D03*
D14*
X307340000Y-23495000D03*
D12*
X277304000Y-23495000D03*
X264377000Y-26035000D03*
D13*
X276542000Y-28575000D03*
X266382000Y-28575000D03*
D14*
X267652000Y-26035000D03*
D15*
X271462000Y-28575000D03*
D14*
X274002000Y-23495000D03*
D12*
X253492000Y-23495000D03*
X240565000Y-26035000D03*
D13*
X252730000Y-28575000D03*
X242570000Y-28575000D03*
D14*
X243840000Y-26035000D03*
D15*
X247650000Y-28575000D03*
D14*
X250190000Y-23495000D03*
D12*
X234442000Y-23495000D03*
X221515000Y-26035000D03*
D13*
X233680000Y-28575000D03*
X223520000Y-28575000D03*
D14*
X224790000Y-26035000D03*
D15*
X228600000Y-28575000D03*
D14*
X231140000Y-23495000D03*
D12*
X215392000Y-23495000D03*
X202465000Y-26035000D03*
D13*
X214630000Y-28575000D03*
X204470000Y-28575000D03*
D14*
X205740000Y-26035000D03*
D15*
X209550000Y-28575000D03*
D14*
X212090000Y-23495000D03*
D12*
X196342000Y-23495000D03*
X183415000Y-26035000D03*
D13*
X195580000Y-28575000D03*
X185420000Y-28575000D03*
D14*
X186690000Y-26035000D03*
D15*
X190500000Y-28575000D03*
D14*
X193040000Y-23495000D03*
D12*
X177292000Y-23495000D03*
X164365000Y-26035000D03*
D13*
X176530000Y-28575000D03*
X166370000Y-28575000D03*
D14*
X167640000Y-26035000D03*
D15*
X171450000Y-28575000D03*
D14*
X173990000Y-23495000D03*
D12*
X158242000Y-23495000D03*
X145315000Y-26035000D03*
D13*
X157480000Y-28575000D03*
X147320000Y-28575000D03*
D14*
X148590000Y-26035000D03*
D15*
X152400000Y-28575000D03*
D14*
X154940000Y-23495000D03*
D12*
X139192000Y-23495000D03*
X126265000Y-26035000D03*
D13*
X138430000Y-28575000D03*
X128270000Y-28575000D03*
D14*
X129540000Y-26035000D03*
D15*
X133350000Y-28575000D03*
D14*
X135890000Y-23495000D03*
D12*
X120142000Y-23495000D03*
X107215000Y-26035000D03*
D13*
X119380000Y-28575000D03*
X109220000Y-28575000D03*
D14*
X110490000Y-26035000D03*
D15*
X114300000Y-28575000D03*
D14*
X116840000Y-23495000D03*
D12*
X101092000Y-23495000D03*
X88165000Y-26035000D03*
D13*
X100330000Y-28575000D03*
X90170000Y-28575000D03*
D14*
X91440000Y-26035000D03*
D15*
X95250000Y-28575000D03*
D14*
X97790000Y-23495000D03*
D12*
X82042000Y-23495000D03*
X69115000Y-26035000D03*
D13*
X81280000Y-28575000D03*
X71120000Y-28575000D03*
D14*
X72390000Y-26035000D03*
D15*
X76200000Y-28575000D03*
D14*
X78740000Y-23495000D03*
D12*
X62992000Y-23495000D03*
X50065000Y-26035000D03*
D13*
X62230000Y-28575000D03*
X52070000Y-28575000D03*
D14*
X53340000Y-26035000D03*
D15*
X57150000Y-28575000D03*
D14*
X59690000Y-23495000D03*
D12*
X43942000Y-23495000D03*
X31015000Y-26035000D03*
D13*
X43180000Y-28575000D03*
X33020000Y-28575000D03*
D14*
X34290000Y-26035000D03*
D15*
X38100000Y-28575000D03*
D14*
X40640000Y-23495000D03*
D12*
X20129500Y-23495000D03*
X7202500Y-26035000D03*
D13*
X19367500Y-28575000D03*
X9207500Y-28575000D03*
D14*
X10477500Y-26035000D03*
D15*
X14287500Y-28575000D03*
D14*
X16827500Y-23495000D03*
D12*
X310642000Y-4445000D03*
X297715000Y-6985000D03*
D13*
X309880000Y-9525000D03*
X299720000Y-9525000D03*
D14*
X300990000Y-6985000D03*
D15*
X304800000Y-9525000D03*
D14*
X307340000Y-4445000D03*
D12*
X282067000Y-4445000D03*
X269140000Y-6985000D03*
D13*
X281305000Y-9525000D03*
X271145000Y-9525000D03*
D14*
X272415000Y-6985000D03*
D15*
X276225000Y-9525000D03*
D14*
X278765000Y-4445000D03*
D12*
X263017000Y-4445000D03*
X250090000Y-6985000D03*
D13*
X262255000Y-9525000D03*
X252095000Y-9525000D03*
D14*
X253365000Y-6985000D03*
D15*
X257175000Y-9525000D03*
D14*
X259715000Y-4445000D03*
D12*
X243967000Y-4445000D03*
X231040000Y-6985000D03*
D13*
X243205000Y-9525000D03*
X233045000Y-9525000D03*
D14*
X234315000Y-6985000D03*
D15*
X238125000Y-9525000D03*
D14*
X240665000Y-4445000D03*
D12*
X224917000Y-4445000D03*
X211990000Y-6985000D03*
D13*
X224155000Y-9525000D03*
X213995000Y-9525000D03*
D14*
X215265000Y-6985000D03*
D15*
X219075000Y-9525000D03*
D14*
X221615000Y-4445000D03*
D12*
X205867000Y-4445000D03*
X192940000Y-6985000D03*
D13*
X205105000Y-9525000D03*
X194945000Y-9525000D03*
D14*
X196215000Y-6985000D03*
D15*
X200025000Y-9525000D03*
D14*
X202565000Y-4445000D03*
D12*
X186817000Y-4445000D03*
X173890000Y-6985000D03*
D13*
X186055000Y-9525000D03*
X175895000Y-9525000D03*
D14*
X177165000Y-6985000D03*
D15*
X180975000Y-9525000D03*
D14*
X183515000Y-4445000D03*
D12*
X167767000Y-4445000D03*
X154840000Y-6985000D03*
D13*
X167005000Y-9525000D03*
X156845000Y-9525000D03*
D14*
X158115000Y-6985000D03*
D15*
X161925000Y-9525000D03*
D14*
X164465000Y-4445000D03*
D12*
X148717000Y-4445000D03*
X135790000Y-6985000D03*
D13*
X147955000Y-9525000D03*
X137795000Y-9525000D03*
D14*
X139065000Y-6985000D03*
D15*
X142875000Y-9525000D03*
D14*
X145415000Y-4445000D03*
D12*
X129667000Y-4445000D03*
X116740000Y-6985000D03*
D13*
X128905000Y-9525000D03*
X118745000Y-9525000D03*
D14*
X120015000Y-6985000D03*
D15*
X123825000Y-9525000D03*
D14*
X126365000Y-4445000D03*
D12*
X110617000Y-4445000D03*
X97690000Y-6985000D03*
D13*
X109855000Y-9525000D03*
X99695000Y-9525000D03*
D14*
X100965000Y-6985000D03*
D15*
X104775000Y-9525000D03*
D14*
X107315000Y-4445000D03*
D12*
X91567000Y-4445000D03*
X78640000Y-6985000D03*
D13*
X90805000Y-9525000D03*
X80645000Y-9525000D03*
D14*
X81915000Y-6985000D03*
D15*
X85725000Y-9525000D03*
D14*
X88265000Y-4445000D03*
D12*
X72517000Y-4445000D03*
X59590000Y-6985000D03*
D13*
X71755000Y-9525000D03*
X61595000Y-9525000D03*
D14*
X62865000Y-6985000D03*
D15*
X66675000Y-9525000D03*
D14*
X69215000Y-4445000D03*
D12*
X53467000Y-4445000D03*
X40540000Y-6985000D03*
D13*
X52705000Y-9525000D03*
X42545000Y-9525000D03*
D14*
X43815000Y-6985000D03*
D15*
X47625000Y-9525000D03*
D14*
X50165000Y-4445000D03*
D12*
X34417000Y-4445000D03*
X21490000Y-6985000D03*
D13*
X33655000Y-9525000D03*
X23495000Y-9525000D03*
D14*
X24765000Y-6985000D03*
D15*
X28575000Y-9525000D03*
D14*
X31115000Y-4445000D03*
D12*
X15367000Y-4445000D03*
X2440000Y-6985000D03*
D13*
X14605000Y-9525000D03*
X4445000Y-9525000D03*
D14*
X5715000Y-6985000D03*
D15*
X9525000Y-9525000D03*
D14*
X12065000Y-4445000D03*
D17*
X18050000Y-8375000D03*
X18050000Y-11675000D03*
X37100000Y-8375000D03*
X37100000Y-11675000D03*
X56150000Y-8375000D03*
X56150000Y-11675000D03*
X75200000Y-8375000D03*
X75200000Y-11675000D03*
X94250000Y-8375000D03*
X94250000Y-11675000D03*
X113300000Y-8375000D03*
X113300000Y-11675000D03*
X132350000Y-8375000D03*
X132350000Y-11675000D03*
X151400000Y-8375000D03*
X151400000Y-11675000D03*
X170450000Y-8375000D03*
X170450000Y-11675000D03*
X189500000Y-8375000D03*
X189500000Y-11675000D03*
X208550000Y-8375000D03*
X208550000Y-11675000D03*
X227600000Y-8375000D03*
X227600000Y-11675000D03*
X246650000Y-8375000D03*
X246650000Y-11675000D03*
X265700000Y-8375000D03*
X265700000Y-11675000D03*
X284750000Y-8375000D03*
X284750000Y-11675000D03*
X313325000Y-8375000D03*
X313325000Y-11675000D03*
X27575000Y-27425000D03*
X27575000Y-30725000D03*
X46625000Y-27425000D03*
X46625000Y-30725000D03*
X65675000Y-27425000D03*
X65675000Y-30725000D03*
X84725000Y-27425000D03*
X84725000Y-30725000D03*
X103775000Y-27425000D03*
X103775000Y-30725000D03*
X122825000Y-27425000D03*
X122825000Y-30725000D03*
X141875000Y-27425000D03*
X141875000Y-30725000D03*
X160925000Y-27425000D03*
X160925000Y-30725000D03*
X179975000Y-27425000D03*
X179975000Y-30725000D03*
X199025000Y-27425000D03*
X199025000Y-30725000D03*
X218075000Y-27425000D03*
X218075000Y-30725000D03*
X237125000Y-27425000D03*
X237125000Y-30725000D03*
X256175000Y-27425000D03*
X256175000Y-30725000D03*
X284750000Y-27425000D03*
X284750000Y-30725000D03*
X313325000Y-27425000D03*
X313325000Y-30725000D03*
X32337500Y-46475000D03*
X32337500Y-49775000D03*
X51387500Y-46475000D03*
X51387500Y-49775000D03*
X70437500Y-46475000D03*
X70437500Y-49775000D03*
X89487500Y-46475000D03*
X89487500Y-49775000D03*
X108538000Y-46475000D03*
X108538000Y-49775000D03*
X127588000Y-46475000D03*
X127588000Y-49775000D03*
X146638000Y-46475000D03*
X146638000Y-49775000D03*
X165688000Y-46475000D03*
X165688000Y-49775000D03*
X184738000Y-46475000D03*
X184738000Y-49775000D03*
X203788000Y-46475000D03*
X203788000Y-49775000D03*
X222838000Y-46475000D03*
X222838000Y-49775000D03*
X241888000Y-46475000D03*
X241888000Y-49775000D03*
X284750000Y-46475000D03*
X284750000Y-49775000D03*
X313325000Y-46475000D03*
X313325000Y-49775000D03*
X41862500Y-65525000D03*
X41862500Y-68825000D03*
X60912500Y-65525000D03*
X60912500Y-68825000D03*
X79962500Y-65525000D03*
X79962500Y-68825000D03*
X99012500Y-65525000D03*
X99012500Y-68825000D03*
X118062000Y-65525000D03*
X118062000Y-68825000D03*
X137112000Y-65525000D03*
X137112000Y-68825000D03*
X156162000Y-65525000D03*
X156162000Y-68825000D03*
X175212000Y-65525000D03*
X175212000Y-68825000D03*
X194262000Y-65525000D03*
X194262000Y-68825000D03*
X213312000Y-65525000D03*
X213312000Y-68825000D03*
X232362000Y-65525000D03*
X232362000Y-68825000D03*
X265700000Y-65525000D03*
X265700000Y-68825000D03*
X294275000Y-65525000D03*
X294275000Y-68825000D03*
X313325000Y-65525000D03*
X313325000Y-68825000D03*
X22812500Y-84575000D03*
X22812500Y-87875000D03*
X46625000Y-84575000D03*
X46625000Y-87875000D03*
X70437500Y-84575000D03*
X70437500Y-87875000D03*
X189500000Y-84575000D03*
X189500000Y-87875000D03*
X208550000Y-84575000D03*
X208550000Y-87875000D03*
X227600000Y-84575000D03*
X227600000Y-87875000D03*
X246650000Y-84575000D03*
X246650000Y-87875000D03*
X275225000Y-84575000D03*
X275225000Y-87875000D03*
X294275000Y-84575000D03*
X294275000Y-87875000D03*
X313325000Y-84575000D03*
X313325000Y-87875000D03*
M02*
