M48
; DRILL file {KiCad (5.1.8-0-10_14)} date Friday, January 01, 2021 at 09:21:03 PM
; FORMAT={-:-/ absolute / inch / decimal}
; #@! TF.CreationDate,2021-01-01T21:21:03+09:00
; #@! TF.GenerationSoftware,Kicad,Pcbnew,(5.1.8-0-10_14)
; #@! TF.FileFunction,Plated,1,2,PTH
FMAT,2
INCH
T1C0.0157
T2C0.0394
%
G90
G05
T1
X1.4374Y-1.9285
X1.485Y-0.3947
X1.485Y-0.5496
X1.7985Y-2.4104
X1.9511Y-1.1516
X2.1002Y-3.1757
X2.112Y-0.8567
X2.1494Y-1.8496
X2.2907Y-0.3831
X2.347Y-2.5179
X2.7131Y-1.1516
X2.8958Y-1.6911
X3.0576Y-0.389
X3.0896Y-2.4979
X3.2093Y-0.5417
X3.6569Y-1.7019
X3.6753Y-0.4182
X3.6753Y-0.9521
X3.8416Y-2.5168
X4.1688Y-1.1516
X4.4266Y-1.8481
X4.5912Y-0.3929
X4.7769Y-2.4104
X4.7832Y-0.6709
X4.8412Y-2.6886
X4.8412Y-3.2021
X5.0483Y-1.1855
X5.0904Y-1.64
X5.1935Y-1.9289
X5.2472Y-0.3947
X5.2472Y-0.7276
X5.559Y-2.4091
X5.8342Y-1.775
X5.9139Y-0.8171
X6.0468Y-0.3831
X6.3259Y-2.4091
X6.4692Y-1.1516
X6.658Y-1.64
X6.7767Y-0.8551
X6.8135Y-0.389
X6.8456Y-2.4981
X7.2361Y-1.1155
X7.4082Y-1.9193
X7.4418Y-0.8866
X7.4418Y-1.6388
X7.5804Y-0.3939
X7.7052Y-2.5138
X7.7052Y-3.1279
X8.0014Y-1.7205
X8.0441Y-0.962
X8.1827Y-1.93
X8.2679Y-0.3947
X8.376Y-3.1757
X8.4324Y-2.525
X8.6417Y-0.1282
X8.9069Y-1.8479
X8.9885Y-0.8821
X9.1142Y-0.3617
X9.1429Y-3.1757
X9.4797Y-0.8964
X9.4797Y-2.525
X9.5444Y-1.775
X9.7932Y-2.8932
X9.8029Y-0.389
X10.4203Y-0.8964
X10.5719Y-0.349
X10.9535Y-2.5979
X10.9535Y-3.1962
X11.16Y-0.2673
X11.16Y-0.3297
X11.2319Y-0.5417
X11.5006Y-3.4683
X11.5381Y-2.7096
X11.6401Y-2.5379
X11.6743Y-0.8567
X11.6743Y-1.9192
X11.6743Y-3.177
T2
X11.35Y-0.0709
X11.35Y-0.1709
X11.35Y-0.2709
X11.35Y-0.3709
X11.35Y-0.4709
X11.35Y-0.5709
X11.35Y-0.6709
X11.35Y-0.7709
X11.35Y-0.8709
X11.35Y-0.9709
X11.35Y-1.0709
X11.5Y-0.0709
X11.5Y-0.1709
X11.5Y-0.2709
X11.5Y-0.3709
X11.5Y-0.4709
X11.5Y-0.5709
X11.5Y-0.6709
X11.5Y-0.7709
X11.5Y-0.8709
X11.5Y-0.9709
X11.5Y-1.0709
T0
M30
