M48
; DRILL file {KiCad (5.1.8-0-10_14)} date Sunday, February 07, 2021 at 02:20:14 AM
; FORMAT={-:-/ absolute / inch / decimal}
; #@! TF.CreationDate,2021-02-07T02:20:14+09:00
; #@! TF.GenerationSoftware,Kicad,Pcbnew,(5.1.8-0-10_14)
; #@! TF.FileFunction,Plated,1,2,PTH
FMAT,2
INCH
T1C0.0157
T2C0.0394
%
G90
G05
T1
X0.2756Y-0.7874
X0.2756Y-0.8268
X0.315Y-0.7874
X0.315Y-0.8268
X0.3937Y-1.2598
X0.3937Y-1.2992
X0.4331Y-1.2598
X0.4331Y-1.2992
X0.5314Y-0.5758
X0.6015Y-1.5825
X0.6693Y-2.126
X0.6693Y-2.1654
X0.6693Y-2.2047
X0.6693Y-2.2441
X0.8661Y-1.1811
X0.8661Y-1.2205
X0.9055Y-1.1811
X0.9055Y-1.2205
X0.9174Y-1.3584
X0.9449Y-2.7953
X0.9449Y-2.8346
X0.9449Y-2.874
X0.9449Y-2.9134
X0.9843Y-0.8661
X0.9843Y-0.9055
X1.0236Y-0.1575
X1.0236Y-0.8661
X1.0236Y-0.9055
X1.063Y-0.1575
X1.063Y-2.126
X1.063Y-2.1654
X1.1024Y-1.6929
X1.1024Y-1.7323
X1.1024Y-2.126
X1.1024Y-2.1654
X1.1417Y-1.6929
X1.1417Y-1.7323
X1.2918Y-2.0045
X1.4567Y-1.6535
X1.4961Y-1.6535
X1.5018Y-0.7313
X1.5354Y-1.6535
X1.5354Y-3.5433
X1.5748Y-1.6535
X1.5748Y-2.8346
X1.5748Y-2.874
X1.5748Y-2.9134
X1.5748Y-2.9528
X1.5748Y-3.5433
X1.6142Y-3.5433
X1.6535Y-3.5433
X1.6929Y-0.1575
X1.7323Y-0.1575
X1.7717Y-2.9528
X1.811Y-2.9528
X1.8504Y-0.6299
X1.8504Y-0.6693
X1.8504Y-2.9528
X1.8898Y-0.6299
X1.8898Y-0.6693
X1.8898Y-2.9528
X2.1266Y-1.5472
X2.2047Y-3.0709
X2.2047Y-3.1102
X2.4016Y-1.6929
X2.4409Y-0.1575
X2.455Y-1.6122
X2.4803Y-0.1575
X2.6335Y-1.2201
X3.0071Y-0.4881
X3.0315Y-0.1575
X3.0709Y-0.1575
X3.1496Y-2.126
X3.1496Y-2.1654
X3.189Y-2.126
X3.189Y-2.1654
X3.3071Y-0.6299
X3.3071Y-0.6693
X3.3465Y-0.6299
X3.3465Y-0.6693
X3.5272Y-2.0045
X3.622Y-0.7087
X3.6614Y-0.7087
X3.7581Y-0.4881
X3.9764Y-2.126
X3.9764Y-2.1654
X4.0157Y-2.126
X4.0157Y-2.1654
X4.1339Y-0.6299
X4.1339Y-0.6693
X4.1339Y-2.8346
X4.1339Y-2.874
X4.1732Y-0.6299
X4.1732Y-0.6693
X4.1732Y-2.8346
X4.1732Y-2.874
X4.3214Y-2.0045
X4.7702Y-0.5428
X4.8345Y-1.2651
X4.9606Y-2.8346
X4.9606Y-2.874
X5.0Y-2.8346
X5.0Y-2.874
X5.3732Y-0.5127
X5.6299Y-0.5512
X5.6693Y-0.5512
X5.6693Y-0.5906
X5.7087Y-0.5512
X6.1811Y-2.126
X6.1811Y-2.1654
X6.2205Y-2.126
X6.2205Y-2.1654
X6.361Y-1.2665
X6.378Y-0.5906
X6.378Y-0.6299
X6.4173Y-0.5906
X6.4173Y-0.6299
X6.4711Y-1.4768
X6.9685Y-2.8346
X6.9685Y-2.874
X7.0079Y-2.8346
X7.0079Y-2.874
X7.0295Y-1.3874
X7.0448Y-1.2665
X7.126Y-0.5906
X7.126Y-0.6299
X7.1654Y-0.5906
X7.1654Y-0.6299
X7.5197Y-1.6535
X7.5591Y-1.6535
X7.5984Y-2.0866
X7.5984Y-2.126
X7.6378Y-2.0866
X7.6378Y-2.126
X7.657Y-1.4456
X7.7103Y-1.5825
X7.8179Y-1.2528
X7.8346Y-0.5906
X7.8346Y-0.6299
X7.874Y-0.5906
X7.874Y-0.6299
X8.0709Y-2.8346
X8.0709Y-2.874
X8.0865Y-1.9681
X8.1102Y-2.8346
X8.1102Y-2.874
X8.4646Y-2.0866
X8.4646Y-2.126
X8.5039Y-0.5512
X8.5039Y-0.5906
X8.5039Y-2.0866
X8.5039Y-2.126
X8.5433Y-0.5512
X8.5433Y-0.5906
X8.7402Y-2.8346
X8.7402Y-2.874
X8.7795Y-2.8346
X8.7795Y-2.874
X9.252Y-0.5906
X9.252Y-0.6299
X9.286Y-1.292
X9.2913Y-0.5906
X9.2913Y-0.6299
X9.4488Y-1.1811
X9.5877Y-1.9681
X9.685Y-0.8661
X9.685Y-0.9055
X9.7244Y-0.8661
X9.7244Y-0.9055
X9.7638Y-1.7717
X9.7638Y-1.811
X9.8031Y-1.7717
X9.8031Y-1.811
X10.0898Y-1.2906
X10.1575Y-0.6299
X10.1575Y-0.6693
X10.1702Y-1.5072
X10.1969Y-0.6299
X10.1969Y-0.6693
X10.2362Y-1.6535
X10.6693Y-2.5197
X10.6693Y-2.5591
X10.7087Y-2.5197
X10.7087Y-2.5591
X10.719Y-1.9681
X11.1454Y-1.2906
X11.378Y-0.748
X11.378Y-0.7874
X11.4173Y-0.748
X11.4173Y-0.7874
X11.4173Y-2.0079
X11.4173Y-2.0472
X11.4567Y-2.0079
X11.4567Y-2.0472
X11.655Y-1.3382
X11.7717Y-2.874
X11.7717Y-2.9134
X11.811Y-2.874
X11.811Y-2.9134
X11.9685Y-1.2992
X12.0079Y-1.2992
T2
X0.08Y-0.64
X0.18Y-0.64
X0.28Y-0.64
X0.38Y-0.64
X0.48Y-0.64
X0.58Y-0.64
X0.68Y-0.64
X0.78Y-0.64
X0.88Y-0.64
X0.98Y-0.64
X1.08Y-0.64
X1.18Y-0.64
X0.0816Y-1.44
X0.1816Y-1.44
X0.2816Y-1.44
X0.3816Y-1.44
X0.4816Y-1.44
X0.5816Y-1.44
X0.6816Y-1.44
X0.7816Y-1.44
X0.8816Y-1.44
X0.9816Y-1.44
X1.0816Y-1.44
X1.1816Y-1.44
X1.2816Y-1.44
X1.3816Y-1.44
X1.4816Y-1.44
X1.5816Y-1.44
T0
M30
